<?xml version="1.0" encoding="utf-8"?>
<!-- Generator: Adobe Illustrator 25.1.0, SVG Export Plug-In . SVG Version: 6.00 Build 0)  -->
<svg version="1.1" id="レイヤー_1" xmlns="http://www.w3.org/2000/svg" xmlns:xlink="http://www.w3.org/1999/xlink" x="0px"
	 y="0px" viewBox="0 0 565.8 113.5" style="enable-background:new 0 0 565.8 113.5;" xml:space="preserve">
<style type="text/css">
	.st0{fill:#2F6C35;}
	.st1{fill:#51A44D;}
</style>
<g>
	<path class="st0" d="M42.8,4.9c0,0-13.5,9.1-12.6,26.7c0.3,6,3,10.5,6,15.4c2.2,3.5,3.4,7.6,3.9,11.7c1.4,11.9-7,24.7-18.5,28.2
		c-1.1,0.3-10.7,2.1-11.1,1c0,0,0.6,2.2,0.6,2.2s24.1,4.3,33-18.9c2.3-6,2.2-12.6,0.4-18.7c-1.8-6.1-6.2-10.2-9.2-15.6
		c-2.8-5.1-3.1-11.1-1.8-16.7c0.6-2.6,1.6-5.2,2.9-7.5C38.1,10.2,40.4,6.5,42.8,4.9z"/>
	<path class="st1" d="M44.1,4.5c-4.2,3.3-6.8,10.6-7.4,15.6c-1.2,10.1,1.4,18.8,8.8,26.1c7.3,7.2,7.8,16,7.8,20.4
		c0,8.6-6.1,18.6-13.8,22.3c-4,1.9-8.5,3.4-13,3.4c-3.7,0-9.3-0.9-12.3-3.3c8.6,6.9,21.3,6.2,30.4,0.8c16.9-10,14.4-26.8,14.4-28.3
		c0-3.8-1.7-7.9-3.5-11.1C50.9,42,41.2,38.1,39,28c-1.1-5.2-1-10.6,1.1-15.5C41.3,9.8,42.7,7.1,44.1,4.5z"/>
	<path class="st1" d="M58.6,62.7c0.3,1.2,1.1,2.5,1.5,3.6c1.3,4,0.6,10.3-0.3,14.4c-1,4.7-3.3,9-6.7,12.4
		c-6.9,6.9-17.6,9.8-26.8,6.4c-6.1-2.2-12.6-6.2-15.4-12.3c-4.3-9-7.3-17.9,3.6-31.9c-1.9,2.4-4,4.5-5.6,7.2c-3.3,5.7-5.3,12.4-4,19
		c2.4,12.3,12.3,22.9,25,24.6c3.2,0.4,7,0.4,10.1-0.3c4.7-1.1,9.8-3.7,13.4-6.9c8.2-7.3,11-17.7,8.9-28.3c-0.6-3.2-1.7-6.5-3.8-9
		C58.5,62,58.5,62.4,58.6,62.7z"/>
</g>
<g>
	<path class="st0" d="M76.2,52c1.5-1.9,2.8-4.5,3.9-7.9c0.5-1.5,0.9-3,1.3-4.4h-4.5v-1.7h4.7v-6.1h3.2v6.1H89v1.7h-4.2v1
		c1.7,2.5,2.7,4.1,3.2,4.9h7.3v-5.9h-2.8c-0.6,2-1.3,3.6-2.2,4.9l-0.6,0.9l-1.1-0.9c-0.4-0.3-0.8-0.6-1.3-0.8
		c1.6-2.4,2.7-5.8,3.4-10.4V33l3.1,0.5c-0.3,1.6-0.6,3.1-0.9,4.4h2.3v-6.1h3.2v6.1h6.2v1.7h-6.2v5.9h7.5v1.7h-6.3
		c1.1,2.6,2.6,5,4.5,7.2c0.9,1.1,1.8,1.9,2.7,2.6c-0.6,0.5-1,0.9-1.2,1.2l-0.5,1l-1.1-0.9c-1.9-1.6-3.7-4-5.5-7.2v9.2h-3.2v-9.3
		c-2,3.3-4.2,5.8-6.6,7.6l-1.2,0.8L87,58.4c-0.2-0.4-0.6-0.7-1.1-1.1c2.1-1.4,4.1-3.5,5.9-6.2c0.9-1.3,1.6-2.6,2.2-3.9h-5.7
		l-1.7,1.9l-0.6-1.3c-0.1-0.3-0.6-1.1-1.3-2.4v14.7h-3.2V47.9c-0.9,2.3-1.8,4.1-2.8,5.5l-0.9,1.3l-0.7-1.4C77,53,76.7,52.5,76.2,52z
		"/>
	<path class="st0" d="M109,39.6v-1.7h16.3c-0.1-1.5-0.2-3.4-0.2-6h3.3c0,2.1,0,4.1,0.1,6h5.8l-0.5-0.6c-1-1.3-2.6-2.7-4.8-4.1
		l1.8-1.5l0.9,0.6c0.9,0.6,1.8,1.2,2.7,2c0.9,0.7,1.6,1.4,2.1,2l-1.7,1.7h3.2v1.7h-9.5c0.4,5.6,1.2,10.1,2.4,13.5
		c1,2.9,2.2,4.6,3.6,5.2c0.5-0.6,0.7-1.8,0.8-3.5c0-0.7,0.1-1.4,0.2-2.2h1.7c0.3,0.3,0.8,0.5,1.4,0.7c-0.1,2.6-0.5,4.6-1,5.7
		c-0.2,0.4-0.5,0.7-0.9,0.9c-0.4,0.2-1.1,0.3-2,0.3c-1.6,0-2.8-0.4-3.8-1.3c-1-0.8-1.8-2-2.4-3.5c-1.6-3.9-2.7-9.2-3.2-15.9H109z
		 M109.2,57.6c0.9-0.2,2-0.4,3.1-0.7c1.2-0.3,2.4-0.6,3.7-0.8v-9.7H110v-1.7h15.6v1.7h-6.3v9l7.1-1.6l0.2,1.8
		c-6.9,1.7-12,2.9-15.3,3.7l-1.5,0.3L109.2,57.6z"/>
	<path class="st0" d="M75.8,76.2c3.7-1.8,7-4.2,9.9-7.2c1.4-1.4,2.5-2.8,3.4-4.2h3c2.2,3.1,5.2,5.9,8.9,8.4c1.7,1.2,3.4,2.1,5.1,2.8
		c-0.3,0.3-0.6,0.7-1,1.3l-0.4,0.6l-1.2-0.6c-1.7-0.8-3.1-1.7-4.3-2.5v1.3H82.5V75c-1.3,0.9-2.6,1.7-4.1,2.4l-1.3,0.7l-0.3-0.7
		C76.6,77.1,76.3,76.7,75.8,76.2z M77.3,82.1v-1.7h27.2v1.7H89.5c-0.6,1.2-1.2,2.6-1.9,4c-0.7,1.4-1.4,2.7-2.1,3.9
		c1.9-0.1,3.9-0.1,6.1-0.2c2.1-0.1,4.3-0.2,6.5-0.2c-1.8-2.1-3.4-3.7-4.6-4.7l2.2-1.3l0.7,0.6c3.2,2.7,5.7,5.5,7.5,8.2l-2.5,1.6
		l-0.5-0.8c-0.5-0.7-1-1.4-1.5-2c-13.3,0.5-20.1,0.8-20.5,0.8h-1.1l-0.2-1.8h0.7c0.9,0,2.1-0.1,3.8-0.2c1.5-2.5,2.8-5.2,3.9-7.9
		H77.3z M83.3,74.4h15.2c-3.3-2.3-5.9-4.6-7.8-6.9C88.9,69.8,86.5,72.2,83.3,74.4z"/>
	<path class="st0" d="M107.4,83.3c2.7-1.7,5.2-3.9,7.4-6.6c1.1-1.4,2.1-2.8,2.8-4.3h-9.2v-1.7h5.2v-5.9h3.2v5.9h2.1l1.1-0.4l1.5,1
		c-0.9,2.1-2.3,4.4-4.3,6.8c0.3,0.3,0.7,0.6,1.2,1.1c0.5,0.4,1.2,1,2,1.7c0.9,0.7,1.5,1.3,1.9,1.7l-1.7,2.2l-0.9-0.9
		c-0.6-0.6-1.6-1.5-2.9-2.7v12.1h-3.2V81.7c-1.2,1.1-2.5,2.1-3.7,2.8l-1.2,0.8l-0.4-0.8C108.1,84.1,107.8,83.7,107.4,83.3z
		 M119.1,90.5h8.3V76.9h-7.1v-1.7h7.1V64.9h3.2v10.2h7v1.7h-7v13.6h7.6v1.7h-19.1V90.5z"/>
	<path class="st0" d="M326.6,54.1l2.3-3.6c6.5,1.4,12.7,3.8,18.4,7.1l-4.4,6.9c-2.7-2.6-5.7-4.8-8.9-6.6
		C330.8,56,328.3,54.8,326.6,54.1z M329.6,82.8c10.5-1,20.8-4.9,30.9-11.5c4.6-3.1,8.8-6.5,12.5-10.2c3.7-3.7,6.7-7.5,9-11.4
		l2.2,3.6C377.3,66,367.5,75.9,355,83c-6.3,3.6-13.2,6.2-20.8,7.9L329.6,82.8z M337.4,37.6l2.3-3.5c5.6,1.4,11.7,3.9,18.3,7.5
		l-4.6,6.7c-2.6-2.6-6-5.3-10.4-7.9C341,39.2,339.1,38.2,337.4,37.6z"/>
	<path class="st0" d="M384.6,86.1c13.3-6.5,23.6-15.3,31.2-26.5c3.6-5.4,6.2-11,7.9-16.9h-26.5c-1.4,0-4.1,0.1-8.1,0.4v-5.2
		c0.7,0.1,2,0.3,4,0.4c2,0.1,3.4,0.2,4.2,0.2h26.6c4.7,0,7.7-0.2,9-0.7l2.3,1.8c-0.7,0.9-1.4,2.3-2.2,4.2c-0.8,1.9-1.9,4.1-3.2,6.7
		c-3,5.9-6.3,10.8-9.8,14.8c6.4,5,13.8,11.6,22,19.6l-6.9,6c-3.9-7.1-9.9-14.6-18-22.4c-4.5,5.2-10.8,10.2-19,15.1
		c-3.6,2.1-7.2,3.9-10.6,5.4L384.6,86.1z"/>
	<path class="st0" d="M444,57.8v-4.7c2.6,0.2,4.9,0.3,6.8,0.3h46.7c1.5,0,3.6-0.1,6.3-0.4v4.7c-1.3-0.1-3.4-0.2-6.3-0.2h-18
		c-0.1,11.5-3.3,20.3-9.5,26.3c-3,2.9-6.7,5.3-10.9,7.2l-3-2.4c5.9-3.3,9.9-7.3,11.9-11.9c2.1-4.6,3.1-11.1,3.2-19.3h-20.3
		C447.8,57.6,445.6,57.7,444,57.8z M452.4,40.1v-4.8c2.9,0.4,5.3,0.6,7.2,0.6h28.8c2.4,0,4.9-0.2,7.5-0.6v4.8
		c-1.8-0.1-4.2-0.2-7.5-0.2h-28.8C456.4,39.9,454,40,452.4,40.1z"/>
	<path class="st0" d="M500.7,78.7c3.4,0,7.1,0,11.2-0.1c6.2-19,10.2-34.3,11.9-45.8l9,2c-1,2.7-2.1,5.8-3.3,9.4
		c-1.2,3.6-3,8.8-5.3,15.4c-2.3,6.6-4.8,12.9-7.5,18.9c12.1-0.3,22.6-1,31.6-2c-1.9-4.8-4.6-10-7.9-15.7l3-1.5
		c5.2,6.2,9.9,13.3,14.3,21.3c1.3,2.5,2.5,4.7,3.4,6.8l-7.9,3.7c-1.5-5-2.6-8.5-3.3-10.4c-7.9,1.7-20.2,3.5-37,5.6
		c-4.1,0.5-7.7,0.9-10.8,1.3L500.7,78.7z"/>
	<path class="st0" d="M238.1,64.2c0,0,13.2-2.6,13.2-15.8s-14.6-15-14.6-15h-28.8v58.3l10.5,0.1V66c0,0,2.7,0,11.9,0
		s10,12.7,10,12.7v13.2h10.8c0-0.4,0-2.5,0-12.9C251.1,64.3,238.1,64.2,238.1,64.2z M231.7,61.1c0,0-13.3,0-13.3,0V37.9
		c0,0,11.7,0,11.8,0c7.2,0,10,6.6,9.4,12.8C239.2,54.3,236.1,61.1,231.7,61.1z"/>
	<polygon class="st0" points="302.1,33.3 288.2,85.4 274.2,33.3 260.2,33.3 260.2,92 270.9,91.9 271.5,41.5 284.7,92 288.2,91.9 
		291.6,92 304.9,41.5 305.5,91.9 316.1,92 316.1,33.3 	"/>
	<path class="st0" d="M189.3,91.8h12.1l-19.9-58.5l-15.7-0.5l-19.7,59h11.5l4.5-14.6h22.8L189.3,91.8z M163.4,73l10.1-32.4l10,32.4
		H163.4z"/>
</g>
</svg>
