<?xml version="1.0" encoding="utf-8"?>
<!-- Generator: Adobe Illustrator 25.1.0, SVG Export Plug-In . SVG Version: 6.00 Build 0)  -->
<svg version="1.1" id="レイヤー_1" xmlns="http://www.w3.org/2000/svg" xmlns:xlink="http://www.w3.org/1999/xlink" x="0px"
	 y="0px" viewBox="0 0 80 110" style="enable-background:new 0 0 80 110;" xml:space="preserve">
<style type="text/css">
	.st0{fill:#2F6C35;}
	.st1{fill:#51A44D;}
</style>
<g>
	<path class="st0" d="M42.8,4.9c0,0-13.5,9.1-12.6,26.7c0.3,6,3,10.5,6,15.4c2.2,3.5,3.4,7.6,3.9,11.7c1.4,11.9-7,24.7-18.5,28.2
		c-1.1,0.3-10.7,2.1-11.1,1c0,0,0.6,2.2,0.6,2.2s24.1,4.3,33-18.9c2.3-6,2.2-12.6,0.4-18.7c-1.8-6.1-6.2-10.2-9.2-15.6
		c-2.8-5.1-3.1-11.1-1.8-16.7c0.6-2.6,1.6-5.2,2.9-7.5C38.1,10.2,40.4,6.5,42.8,4.9z"/>
	<path class="st1" d="M44.1,4.5c-4.2,3.3-6.8,10.6-7.4,15.6c-1.2,10.1,1.4,18.8,8.8,26.1c7.3,7.2,7.8,16,7.8,20.4
		c0,8.6-6.1,18.6-13.8,22.3c-4,1.9-8.5,3.4-13,3.4c-3.7,0-9.3-0.9-12.3-3.3c8.6,6.9,21.3,6.2,30.4,0.8c16.9-10,14.4-26.8,14.4-28.3
		c0-3.8-1.7-7.9-3.5-11.1C50.9,42,41.2,38.1,39,28c-1.1-5.2-1-10.6,1.1-15.5C41.3,9.8,42.7,7.1,44.1,4.5z"/>
	<path class="st1" d="M58.6,62.7c0.3,1.2,1.1,2.5,1.5,3.6c1.3,4,0.6,10.3-0.3,14.4c-1,4.7-3.3,9-6.7,12.4
		c-6.9,6.9-17.6,9.8-26.8,6.4c-6.1-2.2-12.6-6.2-15.4-12.3c-4.3-9-7.3-17.9,3.6-31.9c-1.9,2.4-4,4.5-5.6,7.2c-3.3,5.7-5.3,12.4-4,19
		c2.4,12.3,12.3,22.9,25,24.6c3.2,0.4,7,0.4,10.1-0.3c4.7-1.1,9.8-3.7,13.4-6.9c8.2-7.3,11-17.7,8.9-28.3c-0.6-3.2-1.7-6.5-3.8-9
		C58.5,62,58.5,62.4,58.6,62.7z"/>
</g>
</svg>
