<?xml version="1.0" encoding="utf-8"?>
<!-- Generator: Adobe Illustrator 25.2.0, SVG Export Plug-In . SVG Version: 6.00 Build 0)  -->
<svg version="1.1" id="レイヤー_1" xmlns="http://www.w3.org/2000/svg" xmlns:xlink="http://www.w3.org/1999/xlink" x="0px"
	 y="0px" viewBox="0 0 80 110" enable-background="new 0 0 80 110" xml:space="preserve">
<g>
	<path fill="#2F6C35" d="M49.1,4.5c0,0-13.5,9.1-12.6,26.7c0.3,6,3,10.5,6,15.4c2.2,3.5,3.4,7.6,3.9,11.7c1.4,11.9-7,24.7-18.5,28.2
		c-1.1,0.3-10.7,2.1-11.1,1l0.6,2.2c0,0,24.1,4.3,33-18.9c2.3-6,2.2-12.6,0.4-18.7s-6.2-10.2-9.2-15.6c-2.8-5.1-3.1-11.1-1.8-16.7
		c0.6-2.6,1.6-5.2,2.9-7.5C44.4,9.8,46.7,6.1,49.1,4.5z"/>
	<path fill="#51A44D" d="M50.4,4.1c-4.2,3.3-6.8,10.6-7.4,15.6c-1.2,10.1,1.4,18.8,8.8,26.1c7.3,7.2,7.8,16,7.8,20.4
		c0,8.6-6.1,18.6-13.8,22.3c-4,1.9-8.5,3.4-13,3.4c-3.7,0-9.3-0.9-12.3-3.3c8.6,6.9,21.3,6.2,30.4,0.8c16.9-10,14.4-26.8,14.4-28.3
		c0-3.8-1.7-7.9-3.5-11.1c-4.6-8.4-14.3-12.3-16.5-22.4c-1.1-5.2-1-10.6,1.1-15.5C47.6,9.4,49,6.7,50.4,4.1z"/>
	<path fill="#51A44D" d="M64.9,62.3c0.3,1.2,1.1,2.5,1.5,3.6c1.3,4,0.6,10.3-0.3,14.4c-1,4.7-3.3,9-6.7,12.4
		c-6.9,6.9-17.6,9.8-26.8,6.4c-6.1-2.2-12.6-6.2-15.4-12.3c-4.3-9-7.3-17.9,3.6-31.9c-1.9,2.4-4,4.5-5.6,7.2c-3.3,5.7-5.3,12.4-4,19
		c2.4,12.3,12.3,22.9,25,24.6c3.2,0.4,7,0.4,10.1-0.3c4.7-1.1,9.8-3.7,13.4-6.9c8.2-7.3,11-17.7,8.9-28.3c-0.6-3.2-1.7-6.5-3.8-9
		C64.8,61.6,64.8,62,64.9,62.3z"/>
</g>
</svg>
