<?xml version="1.0" encoding="UTF-8"?>
<svg xmlns="http://www.w3.org/2000/svg" xmlns:xlink="http://www.w3.org/1999/xlink" width="1936.04pt" height="603.51pt" viewBox="0 0 1936.04 603.51" version="1.1">
<defs>
<clipPath id="clip1">
  <path d="M 0 0 L 707 0 L 707 603.511719 L 0 603.511719 Z M 0 0 "/>
</clipPath>
<clipPath id="clip2">
  <path d="M 747 289 L 1013 289 L 1013 603.511719 L 747 603.511719 Z M 747 289 "/>
</clipPath>
<clipPath id="clip3">
  <path d="M 1670 289 L 1936.039063 289 L 1936.039063 603.511719 L 1670 603.511719 Z M 1670 289 "/>
</clipPath>
<clipPath id="clip4">
  <path d="M 1464 296 L 1727 296 L 1727 603.511719 L 1464 603.511719 Z M 1464 296 "/>
</clipPath>
<clipPath id="clip5">
  <path d="M 1028 296 L 1280 296 L 1280 603.511719 L 1028 603.511719 Z M 1028 296 "/>
</clipPath>
<clipPath id="clip6">
  <path d="M 1301 296 L 1531 296 L 1531 603.511719 L 1301 603.511719 Z M 1301 296 "/>
</clipPath>
</defs>
<g id="surface1">
<g clip-path="url(#clip1)" clip-rule="nonzero">
<path style=" stroke:none;fill-rule:evenodd;fill:rgb(13.699341%,56.898499%,81.199646%);fill-opacity:1;" d="M 402.476563 220.039063 C 384.328125 220.125 364.214844 223.300781 347.980469 228.492188 C 311.15625 240.273438 277.398438 257.863281 247.101563 281.960938 C 226.074219 298.683594 206.589844 317.027344 188.726563 337.109375 C 170.140625 358.003906 153.964844 380.523438 141.578125 405.660156 C 128.789063 431.621094 120.140625 458.628906 121.496094 488.023438 C 122.261719 504.535156 126.796875 520.046875 135.453125 534.113281 C 149.199219 556.433594 170.058594 569.042969 194.632813 576.371094 C 213.34375 581.945313 232.242188 580.664063 251.019531 577.476563 C 272.265625 573.871094 292.4375 566.683594 311.945313 557.511719 C 336.8125 545.816406 359.644531 530.945313 381.191406 514.011719 C 382.976563 512.609375 384.410156 512.238281 386.589844 513.0625 C 393.628906 515.734375 401.027344 517.121094 408.484375 517.652344 C 424.769531 518.816406 440.378906 515.871094 454.683594 507.882813 C 483.785156 491.640625 499.789063 466.886719 500.722656 433.382813 C 501.222656 415.574219 495.230469 399.277344 485.632813 384.351563 C 484.652344 382.828125 484.390625 381.621094 485.09375 379.886719 C 489.929688 367.933594 493.28125 355.550781 495.386719 342.839844 C 498.542969 323.792969 498.847656 304.820313 493.425781 286.085938 C 486.550781 262.339844 472.429688 244.089844 451.003906 231.8125 C 435.46875 222.90625 418.410156 219.683594 402.476563 220.039063 M 0 602.566406 C 5.84375 594.3125 10.453125 585.308594 15.566406 576.617188 C 38.222656 538.101563 60.769531 499.519531 83.332031 460.953125 C 110.753906 414.082031 138.121094 367.183594 165.566406 320.324219 C 191.304688 276.386719 217.140625 232.503906 242.878906 188.5625 C 264.144531 152.265625 285.3125 115.914063 306.554688 79.601563 C 321.421875 54.179688 336.328125 28.773438 351.253906 3.382813 C 353.921875 -1.152344 355.992188 -1.101563 358.601563 3.394531 C 380.769531 41.621094 402.925781 79.859375 425.117188 118.078125 C 446.675781 155.210938 468.308594 192.304688 489.847656 229.453125 C 512.695313 268.867188 535.421875 308.351563 558.292969 347.75 C 589.5625 401.617188 620.9375 455.425781 652.234375 509.277344 C 669.730469 539.386719 687.160156 569.539063 704.609375 599.675781 C 705.296875 600.855469 705.871094 602.101563 706.5 603.316406 C 472.125 603.316406 237.75 603.320313 3.375 603.273438 C 2.277344 603.273438 0.832031 604.136719 0 602.566406 "/>
</g>
<g clip-path="url(#clip2)" clip-rule="nonzero">
<path style=" stroke:none;fill-rule:evenodd;fill:rgb(13.699341%,56.898499%,81.199646%);fill-opacity:1;" d="M 747 603.320313 C 747.066406 601.953125 747.191406 600.585938 747.191406 599.214844 C 747.199219 518.863281 746.96875 438.507813 747.316406 358.15625 C 747.441406 329.507813 761.09375 308.421875 786.855469 295.703125 C 810.886719 283.839844 842.902344 289.734375 861.742188 308.570313 C 870.515625 317.339844 876.519531 328.003906 883.398438 338.054688 C 908.992188 375.4375 934.316406 413.007813 959.730469 450.515625 C 974.292969 472.007813 988.972656 493.425781 1003.351563 515.042969 C 1017.839844 536.828125 1014.980469 566.242188 996.949219 585.144531 C 987.671875 594.867188 974.609375 601.625 961.261719 603.445313 C 927.007813 603.421875 856.882813 603.445313 856.382813 603.445313 C 856.339844 603.070313 856.292969 600.421875 856.351563 600.105469 C 856.355469 580.242188 856.355469 560.382813 856.359375 540.523438 C 856.414063 539.007813 856.46875 537.492188 856.523438 535.980469 L 913.929688 535.980469 C 887.617188 497.160156 861.941406 459.285156 836.097656 421.160156 C 835.101563 422.75 835.425781 423.886719 835.425781 424.964844 C 835.402344 469.804688 835.386719 514.640625 835.394531 559.484375 C 835.398438 574.09375 835.464844 588.707031 835.5 603.320313 "/>
</g>
<g clip-path="url(#clip3)" clip-rule="nonzero">
<path style=" stroke:none;fill-rule:evenodd;fill:rgb(13.699341%,56.898499%,81.199646%);fill-opacity:1;" d="M 1721.25 603.320313 C 1713.859375 601.582031 1706.46875 599.890625 1699.839844 595.890625 C 1682.960938 585.707031 1672.960938 571.140625 1670.851563 551.316406 C 1669.339844 537.101563 1673.230469 524.394531 1681.101563 512.757813 C 1710.75 468.921875 1740.449219 425.113281 1770.128906 381.296875 C 1784.269531 360.421875 1798.03125 339.277344 1812.628906 318.734375 C 1826.929688 298.621094 1846.800781 288.839844 1871.71875 289.789063 C 1903.429688 291 1931.03125 315.269531 1935.140625 348.867188 C 1936.039063 356.152344 1936.039063 360.410156 1936.039063 361.960938 C 1936 440.578125 1936.011719 519.199219 1936.011719 597.816406 C 1936.011719 602.582031 1936 602.582031 1931.070313 602.582031 C 1903.691406 602.582031 1875.320313 602.582031 1847.949219 602.582031 C 1847.910156 601.835938 1847.839844 601.089844 1847.839844 600.339844 C 1847.839844 543.738281 1847.839844 487.132813 1847.851563 430.527344 L 1847.851563 421.707031 C 1847.488281 421.601563 1847.128906 421.496094 1846.769531 421.386719 C 1821.039063 459.339844 1795.308594 497.292969 1769.199219 535.808594 C 1787.808594 535.808594 1805.421875 535.886719 1823.03125 535.734375 C 1826.101563 535.707031 1827.03125 536.398438 1827.011719 539.59375 C 1826.878906 560.835938 1826.980469 582.078125 1827 603.320313 "/>
</g>
<g clip-path="url(#clip4)" clip-rule="nonzero">
<path style=" stroke:none;fill-rule:evenodd;fill:rgb(13.699341%,56.898499%,81.199646%);fill-opacity:1;" d="M 1551.75 603.320313 C 1551.71875 598.945313 1551.660156 594.574219 1551.660156 590.203125 C 1551.648438 515.976563 1551.628906 441.75 1551.738281 367.527344 C 1551.75 363.863281 1550.769531 362.980469 1547.191406 363.003906 C 1521.191406 363.160156 1495.199219 363.03125 1469.210938 363.167969 C 1465.800781 363.1875 1464.769531 362.289063 1464.800781 358.800781 C 1464.96875 339.433594 1464.941406 320.0625 1464.820313 300.695313 C 1464.800781 297.667969 1465.570313 296.605469 1468.78125 296.609375 C 1552.75 296.695313 1636.71875 296.683594 1720.691406 296.695313 C 1727.371094 296.695313 1726.390625 296.324219 1726.398438 302.613281 C 1726.421875 321.355469 1726.289063 340.101563 1726.5 358.84375 C 1726.539063 362.484375 1725.320313 363.167969 1722.039063 363.15625 C 1695.800781 363.046875 1669.558594 363.164063 1643.320313 363.015625 C 1639.910156 363 1639.238281 364.035156 1639.25 367.257813 C 1639.339844 437.984375 1639.25 508.710938 1639.398438 579.433594 C 1639.429688 589.453125 1632.421875 601.320313 1621.121094 603.445313 C 1599.238281 603.417969 1552.25 603.320313 1551.75 603.320313 "/>
</g>
<g clip-path="url(#clip5)" clip-rule="nonzero">
<path style=" stroke:none;fill-rule:evenodd;fill:rgb(13.699341%,56.898499%,81.199646%);fill-opacity:1;" d="M 1262.878906 603.445313 C 1258.878906 603.410156 1254.890625 603.339844 1250.890625 603.339844 C 1188.328125 603.335938 1125.769531 603.339844 1063.210938 603.339844 C 1043.621094 600.171875 1028.890625 582.539063 1028.859375 562.878906 C 1028.75 475.898438 1028.808594 388.914063 1028.820313 301.933594 C 1028.820313 301.6875 1028.859375 301.4375 1028.890625 301.1875 C 1028.851563 298.21875 1029.878906 295.894531 1033.289063 296.175781 C 1034.390625 296.589844 1278.648438 296.175781 1278.648438 296.175781 C 1278.648438 296.175781 1278.710938 338.203125 1278.820313 358.679688 C 1278.839844 361.882813 1277.839844 362.640625 1274.800781 362.597656 C 1263.308594 362.429688 1251.820313 362.53125 1240.328125 362.53125 C 1200.25 362.53125 1160.160156 362.519531 1120.070313 362.589844 C 1119.058594 362.589844 1117.480469 361.4375 1116.878906 363.40625 C 1116.878906 376.15625 1116.988281 388.910156 1116.808594 401.65625 C 1116.761719 404.808594 1117.679688 405.605469 1120.78125 405.597656 C 1164.53125 405.496094 1208.28125 405.523438 1252.03125 405.523438 C 1257.191406 405.523438 1257.171875 405.53125 1257.171875 410.773438 C 1257.171875 429.898438 1257.078125 449.023438 1257.269531 468.144531 C 1257.308594 471.527344 1256.359375 472.308594 1253.121094 472.300781 C 1209.121094 472.203125 1165.121094 472.28125 1121.128906 472.148438 C 1117.558594 472.136719 1116.78125 473.175781 1116.808594 476.542969 C 1116.960938 494.914063 1116.988281 513.289063 1116.789063 531.664063 C 1116.75 535.273438 1117.960938 535.882813 1121.210938 535.875 C 1172.589844 535.785156 1223.960938 535.84375 1275.328125 535.738281 C 1278.550781 535.730469 1279.570313 536.367188 1279.519531 539.789063 C 1279.300781 554.035156 1279.460938 568.289063 1279.421875 582.535156 C 1279.390625 592.347656 1272.238281 601.542969 1262.878906 603.445313 "/>
</g>
<g clip-path="url(#clip6)" clip-rule="nonzero">
<path style=" stroke:none;fill-rule:evenodd;fill:rgb(13.699341%,56.898499%,81.199646%);fill-opacity:1;" d="M 1514.378906 603.445313 L 1344.128906 603.445313 C 1340.878906 603.445313 1337.949219 602.613281 1337.210938 602.648438 C 1316 598.792969 1302 582.089844 1302 560.632813 C 1301.988281 474.140625 1302.019531 387.652344 1301.910156 301.164063 C 1301.910156 297.574219 1302.78125 296.597656 1306.421875 296.621094 C 1332.660156 296.78125 1358.910156 296.757813 1385.160156 296.632813 C 1388.28125 296.617188 1389.109375 297.445313 1389.101563 300.585938 C 1389.011719 377.578125 1389.050781 454.566406 1388.941406 531.554688 C 1388.941406 535.027344 1389.929688 535.886719 1393.300781 535.878906 C 1437.789063 535.773438 1482.289063 535.84375 1526.78125 535.738281 C 1529.96875 535.730469 1531.03125 536.34375 1530.96875 539.792969 C 1530.75 553.785156 1530.890625 567.785156 1530.878906 581.785156 C 1530.871094 592.371094 1524.640625 600.433594 1514.378906 603.445313 "/>
</g>
<path style=" stroke:none;fill-rule:evenodd;fill:rgb(13.699341%,56.898499%,81.199646%);fill-opacity:1;" d="M 142.394531 478.382813 C 142.363281 461.214844 147.296875 443.277344 154.929688 425.996094 C 166.859375 398.980469 184.585938 375.875 203.742188 353.707031 C 217.390625 337.914063 232.164063 323.273438 248.082031 309.828125 C 278.535156 284.109375 311.824219 263.300781 350.195313 251.21875 C 368.9375 245.316406 387.894531 241.347656 407.574219 242.574219 C 426.015625 243.726563 442.878906 249.242188 455.671875 263.503906 C 465.519531 274.480469 471.039063 287.644531 473.714844 302.003906 C 477.507813 322.355469 475.078125 342.234375 468.765625 361.796875 C 467.757813 364.902344 466.828125 364.933594 464.285156 363.214844 C 449.722656 353.359375 433.71875 347.214844 416.03125 347.050781 C 390.175781 346.808594 368.839844 357.277344 351.925781 376.550781 C 337.191406 393.347656 329.460938 413.058594 330.1875 435.542969 C 330.839844 455.613281 338.472656 473.121094 351.484375 488.3125 C 354.234375 491.527344 357.09375 494.675781 360.175781 497.566406 C 362.121094 499.394531 362.234375 500.339844 360.046875 502.078125 C 351.820313 508.613281 343.105469 514.414063 334.171875 519.898438 C 318.4375 529.558594 302.21875 538.328125 285.03125 545.121094 C 265.550781 552.820313 245.492188 558.296875 224.34375 558.136719 C 197.449219 557.929688 174.835938 548.0625 157.121094 527.503906 C 148.457031 517.449219 144.914063 505.402344 143.078125 492.625 C 142.484375 488.523438 142.476563 484.40625 142.394531 478.382813 "/>
<path style=" stroke:none;fill-rule:evenodd;fill:rgb(13.699341%,56.898499%,81.199646%);fill-opacity:1;" d="M 483.46875 382.507813 C 483.160156 383.210938 482.820313 384.007813 482.464844 384.789063 C 469.773438 412.664063 453.433594 438.261719 434.164063 462.015625 C 420.445313 478.929688 405.113281 494.253906 388.320313 508.125 C 383.710938 511.9375 383.523438 512.074219 378.164063 509.128906 C 374.238281 506.964844 370.320313 504.765625 366.535156 502.367188 C 363.015625 500.140625 363.046875 499.777344 366.425781 497.183594 C 376.039063 489.808594 385.050781 481.71875 393.800781 473.371094 C 415.75 452.4375 433.046875 427.917969 448.074219 401.726563 C 454.40625 390.695313 461.335938 379.988281 466.53125 368.328125 C 467.097656 367.066406 467.488281 365.582031 469.382813 367.066406 C 474.515625 371.09375 478.929688 375.808594 482.863281 380.992188 C 483.15625 381.371094 483.238281 381.910156 483.46875 382.507813 "/>
</g>
</svg>
