<?xml version="1.0" encoding="UTF-8" standalone="no"?>
<svg
   xmlns:dc="http://purl.org/dc/elements/1.1/"
   xmlns:cc="http://creativecommons.org/ns#"
   xmlns:rdf="http://www.w3.org/1999/02/22-rdf-syntax-ns#"
   xmlns:svg="http://www.w3.org/2000/svg"
   xmlns="http://www.w3.org/2000/svg"
   xmlns:sodipodi="http://sodipodi.sourceforge.net/DTD/sodipodi-0.dtd"
   xmlns:inkscape="http://www.inkscape.org/namespaces/inkscape"
   version="1.0"
   width="635.22852"
   height="111.72637"
   viewBox="0 0 508.18281 89.381097"
   preserveAspectRatio="xMidYMid meet"
   id="svg2"
   inkscape:version="0.48.5 r10040"
   sodipodi:docname="nichicon_Logo.svg">
  <defs
     id="defs30" />
  <sodipodi:namedview
     pagecolor="#ffffff"
     bordercolor="#666666"
     borderopacity="1"
     objecttolerance="10"
     gridtolerance="10"
     guidetolerance="10"
     inkscape:pageopacity="0"
     inkscape:pageshadow="2"
     inkscape:window-width="1280"
     inkscape:window-height="972"
     id="namedview28"
     showgrid="false"
     fit-margin-top="5"
     fit-margin-bottom="5"
     fit-margin-right="5"
     fit-margin-left="5"
     inkscape:zoom="1"
     inkscape:cx="167.99077"
     inkscape:cy="241.2501"
     inkscape:window-x="-8"
     inkscape:window-y="-8"
     inkscape:window-maximized="1"
     inkscape:current-layer="svg2" />
  <metadata
     id="metadata4">
Created by potrace 1.12, written by Peter Selinger 2001-2015
<rdf:RDF>
  <cc:Work
     rdf:about="">
    <dc:format>image/svg+xml</dc:format>
    <dc:type
       rdf:resource="http://purl.org/dc/dcmitype/StillImage" />
    <dc:title></dc:title>
  </cc:Work>
</rdf:RDF>
</metadata>
  <g
     transform="matrix(0.01575379,0,0,-0.01575379,-23.569132,245.91222)"
     id="g6"
     style="fill:#005bab;stroke:none;fill-opacity:1">
    <path
       d="m 7850,15346 c -165,-35 -310,-116 -427,-239 -159,-168 -234,-374 -220,-605 8,-119 27,-192 77,-298 79,-164 202,-289 365,-370 124,-61 221,-84 359,-84 391,0 706,254 792,636 23,105 15,300 -16,399 -50,160 -148,303 -274,401 -78,62 -201,125 -291,149 -83,22 -283,28 -365,11 z"
       id="path8"
       inkscape:connector-curvature="0"
       style="fill:#005bab;fill-opacity:1" />
    <path
       d="m 19299,15346 c -161,-34 -292,-106 -414,-230 -102,-103 -167,-213 -205,-346 -87,-314 27,-658 284,-855 146,-111 306,-165 490,-165 222,0 404,71 559,219 140,133 224,302 246,494 24,207 -34,413 -162,582 -102,133 -269,246 -432,290 -82,22 -282,28 -366,11 z"
       id="path10"
       inkscape:connector-curvature="0"
       style="fill:#005bab;fill-opacity:1" />
    <path
       d="m 13230,15075 0,-255 108,0 c 134,0 182,-20 219,-90 l 23,-43 0,-1831 c 0,-1171 -4,-1844 -10,-1866 -12,-45 -65,-97 -111,-110 -18,-6 -78,-10 -131,-10 l -98,0 0,-340 0,-340 1175,0 1175,0 0,339 0,339 -142,4 c -121,2 -148,6 -177,23 -46,27 -72,64 -82,116 -12,62 -11,749 1,832 27,188 172,329 369,360 89,13 188,-3 271,-44 78,-39 170,-138 202,-216 l 23,-58 3,-847 3,-848 964,0 965,0 0,340 0,340 -167,0 c -223,1 -263,11 -317,84 -21,27 -21,41 -27,689 -6,726 -5,709 -69,837 -100,197 -315,328 -622,376 -150,24 -584,15 -720,-15 -139,-30 -280,-82 -468,-171 -182,-86 -222,-100 -293,-100 -62,0 -102,21 -116,61 -8,23 -11,415 -11,1365 l 0,1334 -970,0 -970,0 0,-255 z"
       id="path12"
       inkscape:connector-curvature="0"
       style="fill:#005bab;fill-opacity:1" />
    <path
       d="m 1750,12530 0,-340 238,0 c 130,0 253,-4 271,-10 46,-13 99,-65 111,-110 6,-21 10,-240 10,-545 0,-474 -2,-513 -19,-550 -44,-96 -76,-105 -371,-105 l -240,0 0,-340 0,-340 1245,0 1245,0 0,340 0,340 -147,0 c -82,0 -164,5 -183,10 -41,11 -94,61 -109,103 -14,37 -15,814 -1,886 41,217 270,370 496,333 147,-24 274,-117 333,-242 l 26,-55 3,-857 2,-858 950,0 950,0 0,340 0,340 -147,0 c -209,1 -270,19 -311,93 -15,29 -17,91 -22,702 -5,649 -6,672 -26,725 -42,111 -77,165 -153,240 -60,60 -96,85 -171,122 -189,93 -324,118 -634,118 -392,0 -545,-34 -895,-201 -168,-80 -224,-99 -299,-99 -46,0 -58,4 -83,29 -29,29 -29,30 -29,150 l 0,121 -1020,0 -1020,0 0,-340 z"
       id="path14"
       inkscape:connector-curvature="0"
       style="fill:#005bab;fill-opacity:1" />
    <path
       d="m 6900,12530 0,-340 213,0 c 239,0 273,-8 318,-71 l 24,-34 0,-555 0,-555 -23,-33 c -45,-63 -63,-67 -309,-70 l -223,-3 0,-340 0,-339 1165,0 1165,0 0,339 0,339 -117,3 c -96,3 -124,8 -152,24 -46,27 -72,64 -82,116 -4,24 -8,452 -9,952 l 0,907 -985,0 -985,0 0,-340 z"
       id="path16"
       inkscape:connector-curvature="0"
       style="fill:#005bab;fill-opacity:1" />
    <path
       d="m 11988,12739 c -3,-125 -4,-132 -28,-151 -41,-33 -99,-20 -257,55 -258,124 -437,167 -721,175 -208,5 -322,-9 -482,-60 -193,-61 -306,-130 -453,-276 -110,-108 -198,-228 -262,-357 -107,-217 -148,-389 -149,-635 -1,-183 12,-267 66,-420 108,-306 329,-548 633,-695 273,-132 531,-180 950,-179 215,0 285,4 405,23 597,91 993,314 1163,656 61,121 88,224 103,383 l 7,72 -466,0 -465,0 -12,-65 c -27,-145 -117,-272 -226,-322 -176,-80 -391,-40 -518,97 -107,116 -154,257 -163,491 -10,253 40,432 153,541 152,146 432,148 593,3 60,-54 109,-161 119,-255 l 7,-75 488,-3 487,-2 -2,562 -3,563 -482,3 -481,2 -4,-131 z"
       id="path18"
       inkscape:connector-curvature="0"
       style="fill:#005bab;fill-opacity:1" />
    <path
       d="m 18350,12530 0,-340 213,0 c 185,0 217,-3 253,-19 53,-24 80,-60 93,-122 15,-68 15,-970 0,-1039 -13,-62 -59,-113 -114,-129 -23,-6 -125,-11 -242,-11 l -203,0 0,-340 0,-340 1170,0 1170,0 0,339 0,339 -122,4 c -171,5 -216,34 -238,149 -6,32 -10,399 -10,950 l 0,899 -985,0 -985,0 0,-340 z"
       id="path20"
       inkscape:connector-curvature="0"
       style="fill:#005bab;fill-opacity:1" />
    <path
       d="m 23430,12740 c 0,-117 -2,-132 -20,-150 -38,-38 -136,-17 -274,60 -86,47 -271,110 -411,140 -126,27 -422,38 -547,21 -190,-27 -385,-97 -517,-185 -154,-103 -332,-308 -425,-490 -101,-197 -144,-370 -153,-606 -8,-229 27,-400 122,-592 203,-410 587,-650 1165,-730 144,-19 574,-17 729,5 754,106 1192,417 1287,914 8,41 14,104 14,139 l 0,64 -460,0 -460,0 -5,-27 c -31,-145 -69,-225 -141,-293 -65,-62 -117,-86 -217,-102 -196,-30 -389,69 -475,244 -57,117 -74,195 -79,384 -4,135 -2,188 11,255 45,227 173,364 362,388 234,29 432,-94 478,-298 9,-39 16,-86 16,-105 l 0,-36 485,0 485,0 0,565 0,565 -485,0 -485,0 0,-130 z"
       id="path22"
       inkscape:connector-curvature="0"
       style="fill:#005bab;fill-opacity:1" />
    <path
       d="m 28700,12530 0,-340 243,0 c 272,0 302,-7 348,-71 l 24,-34 3,-543 c 3,-611 5,-590 -71,-640 l -40,-27 -254,-3 -253,-3 0,-340 0,-339 1245,0 1245,0 0,339 0,339 -167,4 c -187,3 -216,12 -260,76 -31,47 -35,111 -31,532 4,346 6,380 24,436 52,155 182,260 354,287 172,26 359,-61 446,-208 54,-93 54,-91 54,-982 l 0,-823 945,0 945,0 0,340 0,340 -142,0 c -207,1 -249,13 -302,84 -21,27 -21,41 -27,689 -6,722 -5,710 -66,831 -101,203 -315,333 -625,382 -150,24 -584,15 -720,-15 -139,-30 -280,-82 -468,-171 -181,-86 -222,-100 -292,-100 -104,0 -128,37 -128,194 l 0,106 -1015,0 -1015,0 0,-340 z"
       id="path24"
       inkscape:connector-curvature="0"
       style="fill:#005bab;fill-opacity:1" />
    <path
       d="m 26295,12803 c -162,-4 -438,-24 -530,-38 -289,-44 -558,-194 -731,-408 -90,-112 -175,-287 -213,-437 -37,-149 -51,-263 -51,-431 0,-696 249,-1100 752,-1219 233,-55 578,-80 1108,-80 410,0 650,12 875,41 209,27 327,59 450,119 163,80 271,182 365,346 172,301 220,872 106,1265 -113,391 -412,676 -816,780 -198,51 -765,78 -1315,62 z m 447,-674 c 173,-37 293,-165 350,-374 18,-68 21,-106 21,-260 0,-151 -3,-192 -21,-256 -59,-218 -190,-351 -372,-378 -236,-35 -423,60 -516,263 -48,105 -67,230 -61,411 6,177 23,257 78,367 57,112 174,205 289,227 65,13 171,13 232,0 z"
       id="path26"
       inkscape:connector-curvature="0"
       style="fill:#005bab;fill-opacity:1" />
  </g>
</svg>
