<?xml version="1.0" encoding="utf-8"?>
<!-- Generator: Adobe Illustrator 25.2.0, SVG Export Plug-In . SVG Version: 6.00 Build 0)  -->
<svg version="1.1" id="レイヤー_1" xmlns="http://www.w3.org/2000/svg" xmlns:xlink="http://www.w3.org/1999/xlink" x="0px"
	 y="0px" viewBox="0 0 104 12" style="enable-background:new 0 0 104 12;" xml:space="preserve">
<style type="text/css">
	.st0{enable-background:new    ;}
	.st1{fill:url(#SVGID_1_);}
	.st2{fill:url(#SVGID_2_);}
	.st3{fill:url(#SVGID_3_);}
	.st4{fill:url(#SVGID_4_);}
	.st5{fill:url(#SVGID_5_);}
	.st6{fill:url(#SVGID_6_);}
</style>
<g class="st0">
	
		<linearGradient id="SVGID_1_" gradientUnits="userSpaceOnUse" x1="27.5547" y1="6.3776" x2="34.1776" y2="6.3776" gradientTransform="matrix(1 0 0 -1 0 11.5276)">
		<stop  offset="0" style="stop-color:#1A9A3D"/>
		<stop  offset="8.870302e-02" style="stop-color:#1C9E40"/>
		<stop  offset="0.1817" style="stop-color:#23AB48"/>
		<stop  offset="0.2766" style="stop-color:#2EC055"/>
		<stop  offset="0.3729" style="stop-color:#3EDD67"/>
		<stop  offset="0.4694" style="stop-color:#51FF7F"/>
		<stop  offset="0.4888" style="stop-color:#56FF84"/>
		<stop  offset="0.6091" style="stop-color:#3ADB5B"/>
		<stop  offset="0.7283" style="stop-color:#22B339"/>
		<stop  offset="0.8368" style="stop-color:#119720"/>
		<stop  offset="0.9309" style="stop-color:#078511"/>
		<stop  offset="1" style="stop-color:#037F0C"/>
	</linearGradient>
	<path class="st1" d="M27.6,1.4h3.9c0.8,0,1.3,0.2,1.7,0.5s0.6,0.8,0.6,1.3c0,0.4-0.1,0.8-0.4,1.1c-0.3,0.3-0.7,0.5-1.3,0.7
		c0.7,0.1,1.2,0.4,1.6,0.7C34,6,34.2,6.4,34.2,6.9c0,0.4-0.1,0.7-0.3,1s-0.5,0.5-1,0.7s-1,0.3-1.6,0.3h-3.8V8.4h0.6
		c0.2,0,0.3,0,0.4-0.1s0.1-0.1,0.1-0.2V2.2c0-0.1,0-0.2-0.1-0.3c-0.1-0.1-0.2-0.1-0.4-0.1h-0.7V1.4H27.6z M29.8,4.8h1.4
		c0.4,0,0.8-0.1,1-0.4c0.3-0.3,0.4-0.7,0.4-1.2c0-0.4-0.1-0.6-0.2-0.8c-0.1-0.2-0.3-0.3-0.5-0.4c-0.2-0.1-0.6-0.1-1.2-0.1
		c-0.4,0-0.7,0-0.8,0.1c-0.1,0.1-0.1,0.2-0.1,0.3C29.8,2.3,29.8,4.8,29.8,4.8z M29.8,5.2V8c0,0.1,0,0.2,0.1,0.3s0.2,0.1,0.4,0.1h0.9
		c0.6,0,1-0.1,1.3-0.4C32.8,7.8,33,7.4,33,6.8c0-0.5-0.1-0.9-0.4-1.2c-0.3-0.3-0.7-0.4-1.2-0.4C31.4,5.2,29.8,5.2,29.8,5.2z"/>
	
		<linearGradient id="SVGID_2_" gradientUnits="userSpaceOnUse" x1="35.8075" y1="6.3776" x2="42.7868" y2="6.3776" gradientTransform="matrix(1 0 0 -1 0 11.5276)">
		<stop  offset="0" style="stop-color:#1A9A3D"/>
		<stop  offset="8.870302e-02" style="stop-color:#1C9E40"/>
		<stop  offset="0.1817" style="stop-color:#23AB48"/>
		<stop  offset="0.2766" style="stop-color:#2EC055"/>
		<stop  offset="0.3729" style="stop-color:#3EDD67"/>
		<stop  offset="0.4694" style="stop-color:#51FF7F"/>
		<stop  offset="0.4888" style="stop-color:#56FF84"/>
		<stop  offset="0.6091" style="stop-color:#3ADB5B"/>
		<stop  offset="0.7283" style="stop-color:#22B339"/>
		<stop  offset="0.8368" style="stop-color:#119720"/>
		<stop  offset="0.9309" style="stop-color:#078511"/>
		<stop  offset="1" style="stop-color:#037F0C"/>
	</linearGradient>
	<path class="st2" d="M35.8,1.4h3.8c0.7,0,1.3,0.2,1.7,0.5C41.8,2.2,42,2.7,42,3.2c0,0.3-0.1,0.6-0.2,0.9c-0.2,0.3-0.4,0.5-0.7,0.6
		C40.7,4.9,40.3,5,39.6,5c0.5,0.1,0.8,0.3,1,0.4s0.3,0.3,0.4,0.5c0.1,0.2,0.2,0.6,0.4,1.2c0.1,0.4,0.2,0.7,0.3,0.9
		c0.1,0.1,0.2,0.2,0.3,0.2s0.2-0.1,0.3-0.2c0.1-0.2,0.1-0.4,0.2-0.8h0.3c-0.1,1.1-0.5,1.7-1.3,1.7c-0.2,0-0.5-0.1-0.6-0.2
		c-0.2-0.1-0.3-0.3-0.4-0.5c-0.1-0.2-0.1-0.7-0.2-1.4c-0.1-0.5-0.2-0.8-0.3-1s-0.3-0.3-0.5-0.5c-0.2-0.1-0.5-0.2-0.8-0.2h-0.6V8
		c0,0.1,0,0.2,0.1,0.3s0.2,0.1,0.4,0.1h0.7v0.4h-3.4V8.4h0.7c0.2,0,0.3,0,0.4-0.1c0,0,0-0.1,0-0.2v-6c0-0.1,0-0.2-0.1-0.3
		c-0.1-0.1-0.2-0.1-0.4-0.1h-0.7V1.4z M38.1,4.8H39c0.6,0,1-0.1,1.4-0.3c0.3-0.2,0.5-0.6,0.5-1.2c0-0.4-0.1-0.7-0.2-0.9
		c-0.1-0.2-0.3-0.4-0.5-0.5C40,1.8,39.6,1.8,39,1.8c-0.4,0-0.6,0-0.7,0.1C38.2,2,38.2,2,38.2,2.2v2.6H38.1z"/>
	
		<linearGradient id="SVGID_3_" gradientUnits="userSpaceOnUse" x1="43.9506" y1="6.5276" x2="51.5015" y2="6.5276" gradientTransform="matrix(1 0 0 -1 0 11.5276)">
		<stop  offset="0" style="stop-color:#1A9A3D"/>
		<stop  offset="8.870302e-02" style="stop-color:#1C9E40"/>
		<stop  offset="0.1817" style="stop-color:#23AB48"/>
		<stop  offset="0.2766" style="stop-color:#2EC055"/>
		<stop  offset="0.3729" style="stop-color:#3EDD67"/>
		<stop  offset="0.4694" style="stop-color:#51FF7F"/>
		<stop  offset="0.4888" style="stop-color:#56FF84"/>
		<stop  offset="0.6091" style="stop-color:#3ADB5B"/>
		<stop  offset="0.7283" style="stop-color:#22B339"/>
		<stop  offset="0.8368" style="stop-color:#119720"/>
		<stop  offset="0.9309" style="stop-color:#078511"/>
		<stop  offset="1" style="stop-color:#037F0C"/>
	</linearGradient>
	<path class="st3" d="M47.6,1.2H48L50.6,8c0.1,0.3,0.3,0.4,0.7,0.4h0.2v0.4h-3V8.4h0.2c0.3,0,0.5,0,0.7-0.1c0.1,0,0.1-0.1,0.1-0.2
		c0-0.1,0-0.1,0-0.2l-0.6-1.6H46l-0.3,0.9c-0.1,0.2-0.1,0.4-0.1,0.6s0.1,0.3,0.2,0.4c0.2,0.1,0.4,0.2,0.7,0.2h0.3v0.4H44V8.4
		c0.3,0,0.5-0.1,0.7-0.2c0.2-0.1,0.3-0.4,0.5-0.7L47.6,1.2z M47.5,2.7L46.1,6h2.6L47.5,2.7z"/>
	
		<linearGradient id="SVGID_4_" gradientUnits="userSpaceOnUse" x1="52.927" y1="6.4276" x2="60.6879" y2="6.4276" gradientTransform="matrix(1 0 0 -1 0 11.5276)">
		<stop  offset="0" style="stop-color:#1A9A3D"/>
		<stop  offset="8.870302e-02" style="stop-color:#1C9E40"/>
		<stop  offset="0.1817" style="stop-color:#23AB48"/>
		<stop  offset="0.2766" style="stop-color:#2EC055"/>
		<stop  offset="0.3729" style="stop-color:#3EDD67"/>
		<stop  offset="0.4694" style="stop-color:#51FF7F"/>
		<stop  offset="0.4888" style="stop-color:#56FF84"/>
		<stop  offset="0.6091" style="stop-color:#3ADB5B"/>
		<stop  offset="0.7283" style="stop-color:#22B339"/>
		<stop  offset="0.8368" style="stop-color:#119720"/>
		<stop  offset="0.9309" style="stop-color:#078511"/>
		<stop  offset="1" style="stop-color:#037F0C"/>
	</linearGradient>
	<path class="st4" d="M52.9,1.4h1.8l4.5,5.8V3c0-0.4-0.1-0.7-0.3-0.9s-0.4-0.3-0.8-0.3V1.4h2.6v0.4c-0.3,0-0.5,0-0.6,0.1
		s-0.2,0.2-0.3,0.4s-0.1,0.4-0.1,0.6v5.9h-0.5l-4.6-6.1v4.5c0,0.4,0.1,0.7,0.3,0.9c0.2,0.2,0.5,0.3,0.9,0.3v0.4H53V8.4
		c0.4,0,0.6-0.1,0.8-0.3s0.3-0.5,0.3-0.8v-5L54,2.2c-0.2-0.2-0.3-0.3-0.4-0.3c-0.1,0-0.2-0.1-0.4-0.1h-0.3
		C52.9,1.8,52.9,1.4,52.9,1.4z"/>
	
		<linearGradient id="SVGID_5_" gradientUnits="userSpaceOnUse" x1="62.2893" y1="6.3776" x2="69.3529" y2="6.3776" gradientTransform="matrix(1 0 0 -1 0 11.5276)">
		<stop  offset="0" style="stop-color:#1A9A3D"/>
		<stop  offset="8.870302e-02" style="stop-color:#1C9E40"/>
		<stop  offset="0.1817" style="stop-color:#23AB48"/>
		<stop  offset="0.2766" style="stop-color:#2EC055"/>
		<stop  offset="0.3729" style="stop-color:#3EDD67"/>
		<stop  offset="0.4694" style="stop-color:#51FF7F"/>
		<stop  offset="0.4888" style="stop-color:#56FF84"/>
		<stop  offset="0.6091" style="stop-color:#3ADB5B"/>
		<stop  offset="0.7283" style="stop-color:#22B339"/>
		<stop  offset="0.8368" style="stop-color:#119720"/>
		<stop  offset="0.9309" style="stop-color:#078511"/>
		<stop  offset="1" style="stop-color:#037F0C"/>
	</linearGradient>
	<path class="st5" d="M62.3,1.4h3.8c0.6,0,1.1,0.1,1.4,0.3C68,2,68.4,2.4,68.8,3c0.3,0.6,0.5,1.3,0.5,2.1c0,0.7-0.1,1.3-0.3,1.8
		c-0.2,0.4-0.4,0.8-0.7,1.1c-0.3,0.3-0.7,0.5-1.2,0.7c-0.4,0.1-0.8,0.2-1.4,0.2h-3.4V8.4H63c0.2,0,0.3,0,0.4-0.1
		c0.1-0.1,0.1-0.1,0.1-0.3V2c0-0.1,0-0.2-0.1-0.2c-0.1-0.1-0.2-0.1-0.3-0.1h-0.8C62.3,1.7,62.3,1.4,62.3,1.4z M65,1.8
		c-0.2,0-0.3,0-0.3,0.1c-0.1,0.1-0.1,0.2-0.1,0.3v5.9c0,0.1,0,0.2,0.1,0.3s0.2,0.1,0.4,0.1h0.6c0.6,0,1.1-0.1,1.5-0.4
		c0.3-0.2,0.5-0.5,0.6-0.8c0.2-0.5,0.3-1.1,0.3-2c0-1.2-0.2-2.1-0.6-2.7c-0.4-0.5-0.9-0.7-1.7-0.7H65V1.8z"/>
	
		<linearGradient id="SVGID_6_" gradientUnits="userSpaceOnUse" x1="71.6557" y1="6.4276" x2="77" y2="6.4276" gradientTransform="matrix(1 0 0 -1 0 11.5276)">
		<stop  offset="0" style="stop-color:#1A9A3D"/>
		<stop  offset="8.870302e-02" style="stop-color:#1C9E40"/>
		<stop  offset="0.1817" style="stop-color:#23AB48"/>
		<stop  offset="0.2766" style="stop-color:#2EC055"/>
		<stop  offset="0.3729" style="stop-color:#3EDD67"/>
		<stop  offset="0.4694" style="stop-color:#51FF7F"/>
		<stop  offset="0.4888" style="stop-color:#56FF84"/>
		<stop  offset="0.6091" style="stop-color:#3ADB5B"/>
		<stop  offset="0.7283" style="stop-color:#22B339"/>
		<stop  offset="0.8368" style="stop-color:#119720"/>
		<stop  offset="0.9309" style="stop-color:#078511"/>
		<stop  offset="1" style="stop-color:#037F0C"/>
	</linearGradient>
	<path class="st6" d="M75.7,1.9l0.5-0.6h0.4V4h-0.3c-0.2-0.8-0.5-1.4-0.9-1.8S74.5,1.6,74,1.6c-0.4,0-0.8,0.1-1.1,0.4
		c-0.3,0.3-0.4,0.6-0.4,1c0,0.2,0.1,0.4,0.2,0.6S73,3.9,73.2,4c0.2,0.1,0.6,0.2,1.2,0.4c0.8,0.2,1.4,0.4,1.7,0.5
		c0.3,0.2,0.6,0.4,0.7,0.7C77,5.9,77,6.2,77,6.6c0,0.7-0.2,1.2-0.7,1.7c-0.5,0.4-1,0.7-1.7,0.7c-0.8,0-1.4-0.2-2-0.7L72,8.9h-0.4V6
		H72c0.1,0.8,0.5,1.4,0.9,1.9c0.5,0.5,1,0.7,1.7,0.7c0.5,0,0.9-0.1,1.2-0.4s0.5-0.6,0.5-1.1c0-0.2-0.1-0.4-0.2-0.6
		C76,6.3,75.8,6.1,75.6,6c-0.3-0.1-0.8-0.3-1.5-0.4c-0.8-0.2-1.4-0.4-1.7-0.7c-0.4-0.3-0.6-0.8-0.6-1.5s0.2-1.2,0.6-1.6
		s0.9-0.6,1.6-0.6c0.3,0,0.6,0.1,0.9,0.2C75.1,1.5,75.4,1.7,75.7,1.9z"/>
</g>
</svg>
