<?xml version="1.0" encoding="utf-8"?>
<!-- Generator: Adobe Illustrator 25.2.0, SVG Export Plug-In . SVG Version: 6.00 Build 0)  -->
<svg version="1.1" id="レイヤー_1" xmlns="http://www.w3.org/2000/svg" xmlns:xlink="http://www.w3.org/1999/xlink" x="0px"
	 y="0px" viewBox="0 0 110 12" style="enable-background:new 0 0 110 12;" xml:space="preserve">
<style type="text/css">
	.st0{fill:url(#SVGID_1_);}
	.st1{fill:url(#SVGID_2_);}
	.st2{fill:url(#SVGID_3_);}
	.st3{fill:url(#SVGID_4_);}
	.st4{fill:url(#SVGID_5_);}
	.st5{fill:url(#SVGID_6_);}
	.st6{fill:url(#SVGID_7_);}
	.st7{fill:url(#SVGID_8_);}
	.st8{fill:url(#SVGID_9_);}
	.st9{fill:url(#SVGID_10_);}
	.st10{fill:url(#SVGID_11_);}
	.st11{fill:url(#SVGID_12_);}
	.st12{fill:url(#SVGID_13_);}
	.st13{fill:url(#SVGID_14_);}
	.st14{fill:url(#SVGID_15_);}
	.st15{fill:url(#SVGID_16_);}
	.st16{fill:url(#SVGID_17_);}
	.st17{fill:url(#SVGID_18_);}
	.st18{fill:url(#SVGID_19_);}
	.st19{fill:url(#SVGID_20_);}
	.st20{fill:url(#SVGID_21_);}
	.st21{fill:url(#SVGID_22_);}
</style>
<g>
	<g>
		<g>
			<linearGradient id="SVGID_1_" gradientUnits="userSpaceOnUse" x1="55" y1="7.3476" x2="55" y2="9.6684">
				<stop  offset="0" style="stop-color:#1A9A3D"/>
				<stop  offset="8.870302e-02" style="stop-color:#1C9E40"/>
				<stop  offset="0.1817" style="stop-color:#23AB48"/>
				<stop  offset="0.2766" style="stop-color:#2EC055"/>
				<stop  offset="0.3729" style="stop-color:#3EDD67"/>
				<stop  offset="0.4694" style="stop-color:#51FF7F"/>
				<stop  offset="0.4888" style="stop-color:#56FF84"/>
				<stop  offset="0.6091" style="stop-color:#3ADB5B"/>
				<stop  offset="0.7283" style="stop-color:#22B339"/>
				<stop  offset="0.8368" style="stop-color:#119720"/>
				<stop  offset="0.9309" style="stop-color:#078511"/>
				<stop  offset="1" style="stop-color:#037F0C"/>
			</linearGradient>
			<path class="st0" d="M17.9,8.9c0,0.6,0,0.6,1,0.7c0.1,0,0.1,0,0.1,0.1c0,0.1,0,0.1-0.1,0.1c0,0-0.1,0-0.3,0c-0.4,0-0.9,0-1.3,0
				c-0.4,0-0.9,0-1.3,0c-0.2,0-0.3,0-0.3,0c-0.1,0-0.1,0-0.1-0.1c0-0.1,0-0.1,0.1-0.1c1,0,1-0.1,1-0.7V3.1c0-0.6,0-0.6-1-0.7
				c-0.1,0-0.1,0-0.1-0.1c0,0,0-0.1,0.1-0.1c0,0,0.1,0,0.3,0c0.4,0,0.9,0,1.3,0c0.4,0,0.9,0,1.3,0c0.2,0,0.3,0,0.3,0
				C19,2.3,19,2.3,19,2.4c0,0.1,0,0.1-0.1,0.1c-1,0-1,0.1-1,0.7V8.9z"/>
			<linearGradient id="SVGID_2_" gradientUnits="userSpaceOnUse" x1="55" y1="7.3476" x2="55" y2="9.6684">
				<stop  offset="0" style="stop-color:#1A9A3D"/>
				<stop  offset="8.870302e-02" style="stop-color:#1C9E40"/>
				<stop  offset="0.1817" style="stop-color:#23AB48"/>
				<stop  offset="0.2766" style="stop-color:#2EC055"/>
				<stop  offset="0.3729" style="stop-color:#3EDD67"/>
				<stop  offset="0.4694" style="stop-color:#51FF7F"/>
				<stop  offset="0.4888" style="stop-color:#56FF84"/>
				<stop  offset="0.6091" style="stop-color:#3ADB5B"/>
				<stop  offset="0.7283" style="stop-color:#22B339"/>
				<stop  offset="0.8368" style="stop-color:#119720"/>
				<stop  offset="0.9309" style="stop-color:#078511"/>
				<stop  offset="1" style="stop-color:#037F0C"/>
			</linearGradient>
			<path class="st1" d="M27.7,3.9c0-1.1-0.5-1.4-1.6-1.4c-0.1,0-0.1,0-0.1-0.1c0-0.1,0-0.1,0.1-0.1c0,0,0.1,0,0.4,0c0.5,0,1,0,1.3,0
				c0.3,0,0.6,0,1,0c0.1,0,0.2,0,0.3,0c0.1,0,0.1,0.1,0.1,0.1c0,0,0,0.1-0.1,0.1c-0.8,0-1.2,0.4-1.2,1.4v5.7c0,0.2-0.1,0.2-0.1,0.2
				c-0.1,0-0.1,0-0.2-0.1l-4.8-6.5v4.8c0,1.2,0.2,1.4,1.5,1.5c0.1,0,0.1,0,0.1,0.1c0,0.1,0,0.1-0.1,0.1c0,0-0.1,0-0.3,0
				c-0.5,0-1,0-1.3,0c-0.3,0-0.7,0-1.1,0c-0.1,0-0.2,0-0.2,0c-0.1,0-0.1,0-0.1-0.1c0,0,0-0.1,0.1-0.1c0.8-0.1,1.2-0.3,1.2-1.5V3.4
				c0-0.9-0.1-0.9-1.2-0.9c-0.1,0-0.1-0.1-0.1-0.1s0.1-0.1,0.1-0.1h2.1c0.2,0,0.3,0.1,0.4,0.3l3.8,5.1V3.9z"/>
			<linearGradient id="SVGID_3_" gradientUnits="userSpaceOnUse" x1="55" y1="7.3476" x2="55" y2="9.6684">
				<stop  offset="0" style="stop-color:#1A9A3D"/>
				<stop  offset="8.870302e-02" style="stop-color:#1C9E40"/>
				<stop  offset="0.1817" style="stop-color:#23AB48"/>
				<stop  offset="0.2766" style="stop-color:#2EC055"/>
				<stop  offset="0.3729" style="stop-color:#3EDD67"/>
				<stop  offset="0.4694" style="stop-color:#51FF7F"/>
				<stop  offset="0.4888" style="stop-color:#56FF84"/>
				<stop  offset="0.6091" style="stop-color:#3ADB5B"/>
				<stop  offset="0.7283" style="stop-color:#22B339"/>
				<stop  offset="0.8368" style="stop-color:#119720"/>
				<stop  offset="0.9309" style="stop-color:#078511"/>
				<stop  offset="1" style="stop-color:#037F0C"/>
			</linearGradient>
			<path class="st2" d="M33.8,8.9c0,0.6,0,0.6,1,0.7c0.1,0,0.1,0,0.1,0.1c0,0.1,0,0.1-0.1,0.1c0,0-0.1,0-0.3,0c-0.4,0-0.9,0-1.3,0
				c-0.4,0-0.9,0-1.3,0c-0.2,0-0.3,0-0.3,0c-0.1,0-0.1,0-0.1-0.1c0-0.1,0-0.1,0.1-0.1c1,0,1-0.1,1-0.7V3.1c0-0.6,0-0.6-1-0.7
				c-0.1,0-0.1,0-0.1-0.1c0,0,0-0.1,0.1-0.1c0,0,0.1,0,0.3,0c0.4,0,0.9,0,1.3,0c0.4,0,0.9,0,1.3,0c0.2,0,0.3,0,0.3,0
				c0.1,0,0.1,0.1,0.1,0.1c0,0.1,0,0.1-0.1,0.1c-1,0-1,0.1-1,0.7V8.9z"/>
			<linearGradient id="SVGID_4_" gradientUnits="userSpaceOnUse" x1="55" y1="7.3476" x2="55" y2="9.6684">
				<stop  offset="0" style="stop-color:#1A9A3D"/>
				<stop  offset="8.870302e-02" style="stop-color:#1C9E40"/>
				<stop  offset="0.1817" style="stop-color:#23AB48"/>
				<stop  offset="0.2766" style="stop-color:#2EC055"/>
				<stop  offset="0.3729" style="stop-color:#3EDD67"/>
				<stop  offset="0.4694" style="stop-color:#51FF7F"/>
				<stop  offset="0.4888" style="stop-color:#56FF84"/>
				<stop  offset="0.6091" style="stop-color:#3ADB5B"/>
				<stop  offset="0.7283" style="stop-color:#22B339"/>
				<stop  offset="0.8368" style="stop-color:#119720"/>
				<stop  offset="0.9309" style="stop-color:#078511"/>
				<stop  offset="1" style="stop-color:#037F0C"/>
			</linearGradient>
			<path class="st3" d="M41.1,2.3c0.4,0,1,0,1.4,0c0.2,0,0.2,0,0.3,0c0.2,0,0.2,0,0.2,0.2c0,0.2,0,0.6,0,1c0,0.2,0,0.5,0,0.7
				c0,0.1,0,0.1-0.1,0.1c0,0-0.1,0-0.1-0.1c-0.2-1-0.6-1.7-1.7-1.7H41c-0.4,0-0.4,0-0.4,0.4v6c0,0.6,0,0.6,1,0.7
				c0.1,0,0.1,0,0.1,0.1c0,0.1,0,0.1-0.1,0.1c0,0-0.1,0-0.3,0c-0.4,0-0.9,0-1.3,0s-0.9,0-1.3,0c-0.2,0-0.3,0-0.3,0
				c-0.1,0-0.1,0-0.1-0.1c0-0.1,0-0.1,0.1-0.1c1,0,1-0.1,1-0.7v-6c0-0.4,0-0.4-0.4-0.4h-0.1c-1.1,0-1.6,0.6-1.7,1.7
				C37,4.3,37,4.3,37,4.3c0,0-0.1,0-0.1-0.1c0-0.2,0-0.4,0-0.7c0-0.4,0-0.8,0-1c0-0.2,0-0.2,0.2-0.2c0,0,0.1,0,0.3,0
				c0.4,0,1,0,1.4,0H41.1z"/>
			<linearGradient id="SVGID_5_" gradientUnits="userSpaceOnUse" x1="55" y1="7.3476" x2="55" y2="9.6684">
				<stop  offset="0" style="stop-color:#1A9A3D"/>
				<stop  offset="8.870302e-02" style="stop-color:#1C9E40"/>
				<stop  offset="0.1817" style="stop-color:#23AB48"/>
				<stop  offset="0.2766" style="stop-color:#2EC055"/>
				<stop  offset="0.3729" style="stop-color:#3EDD67"/>
				<stop  offset="0.4694" style="stop-color:#51FF7F"/>
				<stop  offset="0.4888" style="stop-color:#56FF84"/>
				<stop  offset="0.6091" style="stop-color:#3ADB5B"/>
				<stop  offset="0.7283" style="stop-color:#22B339"/>
				<stop  offset="0.8368" style="stop-color:#119720"/>
				<stop  offset="0.9309" style="stop-color:#078511"/>
				<stop  offset="1" style="stop-color:#037F0C"/>
			</linearGradient>
			<path class="st4" d="M47.4,8.9c0,0.6,0,0.6,1,0.7c0.1,0,0.1,0,0.1,0.1c0,0.1,0,0.1-0.1,0.1c0,0-0.1,0-0.3,0c-0.4,0-0.9,0-1.3,0
				c-0.4,0-0.9,0-1.3,0c-0.2,0-0.3,0-0.3,0c-0.1,0-0.1,0-0.1-0.1c0-0.1,0-0.1,0.1-0.1c1,0,1-0.1,1-0.7V3.1c0-0.6,0-0.6-1-0.7
				c-0.1,0-0.1,0-0.1-0.1c0,0,0-0.1,0.1-0.1c0,0,0.1,0,0.3,0c0.4,0,0.9,0,1.3,0c0.4,0,0.9,0,1.3,0c0.2,0,0.3,0,0.3,0
				c0.1,0,0.1,0.1,0.1,0.1c0,0.1,0,0.1-0.1,0.1c-1,0-1,0.1-1,0.7V8.9z"/>
			<linearGradient id="SVGID_6_" gradientUnits="userSpaceOnUse" x1="55" y1="7.3476" x2="55" y2="9.6684">
				<stop  offset="0" style="stop-color:#1A9A3D"/>
				<stop  offset="8.870302e-02" style="stop-color:#1C9E40"/>
				<stop  offset="0.1817" style="stop-color:#23AB48"/>
				<stop  offset="0.2766" style="stop-color:#2EC055"/>
				<stop  offset="0.3729" style="stop-color:#3EDD67"/>
				<stop  offset="0.4694" style="stop-color:#51FF7F"/>
				<stop  offset="0.4888" style="stop-color:#56FF84"/>
				<stop  offset="0.6091" style="stop-color:#3ADB5B"/>
				<stop  offset="0.7283" style="stop-color:#22B339"/>
				<stop  offset="0.8368" style="stop-color:#119720"/>
				<stop  offset="0.9309" style="stop-color:#078511"/>
				<stop  offset="1" style="stop-color:#037F0C"/>
			</linearGradient>
			<path class="st5" d="M56.6,8.4c0.4,1,0.5,1.1,1.1,1.2c0.1,0,0.1,0,0.1,0.1c0,0.1,0,0.1-0.1,0.1c-0.1,0-0.3,0-0.6,0
				c-0.3,0-0.8,0-1,0c-0.4,0-1.1,0-1.5,0c-0.2,0-0.3,0-0.4,0c-0.1,0-0.1,0-0.1-0.1c0,0,0-0.1,0.1-0.1c0.2,0,0.5,0,0.7,0
				c0.4,0,0.5-0.2,0.5-0.5c0-0.2-0.1-0.4-0.2-0.7l-0.5-1.5h-2.1l-0.5,1.2c-0.2,0.5-0.2,0.7-0.2,0.9c0,0.3,0.2,0.4,0.5,0.5
				c0.2,0,0.4,0,0.4,0c0.1,0,0.1,0,0.1,0.1c0,0.1,0,0.1-0.1,0.1c-0.1,0-0.3,0-0.6,0c-0.2,0-0.4,0-0.7,0c-0.2,0-0.3,0-0.5,0
				c-0.2,0-0.4,0-0.5,0c-0.1,0-0.1,0-0.1-0.1c0-0.1,0-0.1,0.1-0.1c0.7,0,0.9-0.4,1.4-1.7L54,2.3c0,0,0-0.1,0.1-0.1
				c0,0,0.1,0,0.1,0.1L56.6,8.4z M54.6,6.6l-1-2.6l-1,2.6H54.6z"/>
			<linearGradient id="SVGID_7_" gradientUnits="userSpaceOnUse" x1="55" y1="7.3476" x2="55" y2="9.6684">
				<stop  offset="0" style="stop-color:#1A9A3D"/>
				<stop  offset="8.870302e-02" style="stop-color:#1C9E40"/>
				<stop  offset="0.1817" style="stop-color:#23AB48"/>
				<stop  offset="0.2766" style="stop-color:#2EC055"/>
				<stop  offset="0.3729" style="stop-color:#3EDD67"/>
				<stop  offset="0.4694" style="stop-color:#51FF7F"/>
				<stop  offset="0.4888" style="stop-color:#56FF84"/>
				<stop  offset="0.6091" style="stop-color:#3ADB5B"/>
				<stop  offset="0.7283" style="stop-color:#22B339"/>
				<stop  offset="0.8368" style="stop-color:#119720"/>
				<stop  offset="0.9309" style="stop-color:#078511"/>
				<stop  offset="1" style="stop-color:#037F0C"/>
			</linearGradient>
			<path class="st6" d="M63.1,2.3c0.4,0,1,0,1.4,0c0.2,0,0.2,0,0.3,0c0.2,0,0.2,0,0.2,0.2c0,0.2,0,0.6,0,1c0,0.2,0,0.5,0,0.7
				c0,0.1,0,0.1-0.1,0.1s-0.1,0-0.1-0.1c-0.2-1-0.6-1.7-1.7-1.7H63c-0.4,0-0.4,0-0.4,0.4v6c0,0.6,0,0.6,1,0.7c0.1,0,0.1,0,0.1,0.1
				c0,0.1,0,0.1-0.1,0.1c0,0-0.1,0-0.3,0c-0.4,0-0.9,0-1.3,0s-0.9,0-1.3,0c-0.2,0-0.3,0-0.3,0c-0.1,0-0.1,0-0.1-0.1
				c0-0.1,0-0.1,0.1-0.1c1,0,1-0.1,1-0.7v-6c0-0.4,0-0.4-0.4-0.4h-0.1c-1.1,0-1.6,0.6-1.7,1.7c0,0.1,0,0.1-0.1,0.1s-0.1,0-0.1-0.1
				c0-0.2,0-0.4,0-0.7c0-0.4,0-0.8,0-1c0-0.2,0-0.2,0.2-0.2c0.1,0,0.1,0,0.3,0c0.4,0,1,0,1.4,0H63.1z"/>
			<linearGradient id="SVGID_8_" gradientUnits="userSpaceOnUse" x1="55" y1="7.3476" x2="55" y2="9.6684">
				<stop  offset="0" style="stop-color:#1A9A3D"/>
				<stop  offset="8.870302e-02" style="stop-color:#1C9E40"/>
				<stop  offset="0.1817" style="stop-color:#23AB48"/>
				<stop  offset="0.2766" style="stop-color:#2EC055"/>
				<stop  offset="0.3729" style="stop-color:#3EDD67"/>
				<stop  offset="0.4694" style="stop-color:#51FF7F"/>
				<stop  offset="0.4888" style="stop-color:#56FF84"/>
				<stop  offset="0.6091" style="stop-color:#3ADB5B"/>
				<stop  offset="0.7283" style="stop-color:#22B339"/>
				<stop  offset="0.8368" style="stop-color:#119720"/>
				<stop  offset="0.9309" style="stop-color:#078511"/>
				<stop  offset="1" style="stop-color:#037F0C"/>
			</linearGradient>
			<path class="st7" d="M69.4,8.9c0,0.6,0,0.6,1,0.7c0.1,0,0.1,0,0.1,0.1c0,0.1,0,0.1-0.1,0.1c0,0-0.1,0-0.3,0c-0.4,0-0.9,0-1.3,0
				c-0.4,0-0.9,0-1.3,0c-0.2,0-0.3,0-0.3,0c-0.1,0-0.1,0-0.1-0.1c0-0.1,0-0.1,0.1-0.1c1,0,1-0.1,1-0.7V3.1c0-0.6,0-0.6-1-0.7
				c-0.1,0-0.1,0-0.1-0.1c0,0,0-0.1,0.1-0.1c0,0,0.1,0,0.3,0c0.4,0,0.9,0,1.3,0c0.4,0,0.9,0,1.3,0c0.2,0,0.3,0,0.3,0
				c0.1,0,0.1,0.1,0.1,0.1c0,0.1,0,0.1-0.1,0.1c-1,0-1,0.1-1,0.7V8.9z"/>
			<linearGradient id="SVGID_9_" gradientUnits="userSpaceOnUse" x1="55" y1="7.3476" x2="55" y2="9.6684">
				<stop  offset="0" style="stop-color:#1A9A3D"/>
				<stop  offset="8.870302e-02" style="stop-color:#1C9E40"/>
				<stop  offset="0.1817" style="stop-color:#23AB48"/>
				<stop  offset="0.2766" style="stop-color:#2EC055"/>
				<stop  offset="0.3729" style="stop-color:#3EDD67"/>
				<stop  offset="0.4694" style="stop-color:#51FF7F"/>
				<stop  offset="0.4888" style="stop-color:#56FF84"/>
				<stop  offset="0.6091" style="stop-color:#3ADB5B"/>
				<stop  offset="0.7283" style="stop-color:#22B339"/>
				<stop  offset="0.8368" style="stop-color:#119720"/>
				<stop  offset="0.9309" style="stop-color:#078511"/>
				<stop  offset="1" style="stop-color:#037F0C"/>
			</linearGradient>
			<path class="st8" d="M75.7,9.7c-0.5-1.5-1.7-4.6-2.1-5.7C73,2.5,73,2.5,72.4,2.4c-0.1,0-0.1,0-0.1-0.1c0-0.1,0-0.1,0.1-0.1
				c0,0,0.2,0,0.3,0c0.6,0,1.2,0,1.6,0c0.4,0,0.8,0,1.2,0c0.3,0,0.4,0,0.5,0c0.1,0,0.1,0,0.1,0.1c0,0.1,0,0.1-0.1,0.1
				c-0.7,0.1-1.1,0.2-1.1,0.7c0,0.2,0,0.4,0.1,0.6c0.4,1.2,1.1,3.3,1.5,4.5c0.4-1.1,1.2-3.3,1.6-4.3c0.1-0.3,0.1-0.5,0.1-0.7
				c0-0.6-0.4-0.7-1-0.8c-0.1,0-0.1,0-0.1-0.1c0-0.1,0-0.1,0.1-0.1c0.1,0,0.4,0,0.7,0c0.2,0,0.4,0,0.7,0c0.3,0,0.5,0,0.8,0
				c0.1,0,0.2,0,0.3,0c0,0,0.1,0,0.1,0.1c0,0,0,0.1-0.1,0.1c-0.7,0.1-0.9,0.4-1.4,1.7c-0.7,1.8-1.5,4.1-2.1,5.6H75.7z"/>
			<linearGradient id="SVGID_10_" gradientUnits="userSpaceOnUse" x1="55" y1="7.3476" x2="55" y2="9.6684">
				<stop  offset="0" style="stop-color:#1A9A3D"/>
				<stop  offset="8.870302e-02" style="stop-color:#1C9E40"/>
				<stop  offset="0.1817" style="stop-color:#23AB48"/>
				<stop  offset="0.2766" style="stop-color:#2EC055"/>
				<stop  offset="0.3729" style="stop-color:#3EDD67"/>
				<stop  offset="0.4694" style="stop-color:#51FF7F"/>
				<stop  offset="0.4888" style="stop-color:#56FF84"/>
				<stop  offset="0.6091" style="stop-color:#3ADB5B"/>
				<stop  offset="0.7283" style="stop-color:#22B339"/>
				<stop  offset="0.8368" style="stop-color:#119720"/>
				<stop  offset="0.9309" style="stop-color:#078511"/>
				<stop  offset="1" style="stop-color:#037F0C"/>
			</linearGradient>
			<path class="st9" d="M84.5,5.8c0.9,0,1.5-0.1,1.7-1c0,0,0-0.1,0.1-0.1c0,0,0.1,0,0.1,0.1c0,0.1,0,0.1,0,0.4c0,0.2,0,0.7,0,0.8
				c0,0.2,0,0.5,0,0.7c0,0.2,0,0.2,0,0.2c0,0.1,0,0.1-0.1,0.1c0,0-0.1,0-0.1-0.1c-0.2-0.9-0.7-1-1.7-1h-0.6v2.7
				c0,0.7,0.2,0.9,0.7,0.9h0.2c1.3,0,1.9-0.6,2.3-1.9c0,0,0,0,0.1,0c0,0,0.1,0,0.1,0.1c0,0.4-0.1,1.4-0.2,1.7
				c-0.1,0.4-0.1,0.4-0.4,0.4c-0.2,0-0.4,0-0.9,0c-0.6,0-1.5,0-2.3,0c-0.4,0-0.7,0-1.1,0c-0.3,0-0.6,0-0.7,0c-0.1,0-0.1,0-0.1-0.1
				c0,0,0-0.1,0.1-0.1c0.9,0,1,0,1-1v-5c0-1-0.1-1-1.1-1.1c-0.1,0-0.1-0.1-0.1-0.1s0-0.1,0.1-0.1c0,0,0.2,0,0.4,0c0.5,0,1.2,0,1.5,0
				h1.1c0.7,0,1.1,0,1.6,0c0.3,0,0.4,0,0.5,0c0.2,0,0.2,0,0.2,0.2c0,0.3,0,0.6,0,1c0,0.2,0,0.5,0,0.6c0,0.1,0,0.1-0.1,0.1
				c0,0-0.1,0-0.1-0.1c-0.2-1-0.6-1.6-1.6-1.6h-0.8c-0.2,0-0.2,0-0.2,0.3v3H84.5z"/>
			<linearGradient id="SVGID_11_" gradientUnits="userSpaceOnUse" x1="55" y1="7.3476" x2="55" y2="9.6684">
				<stop  offset="0" style="stop-color:#1A9A3D"/>
				<stop  offset="8.870302e-02" style="stop-color:#1C9E40"/>
				<stop  offset="0.1817" style="stop-color:#23AB48"/>
				<stop  offset="0.2766" style="stop-color:#2EC055"/>
				<stop  offset="0.3729" style="stop-color:#3EDD67"/>
				<stop  offset="0.4694" style="stop-color:#51FF7F"/>
				<stop  offset="0.4888" style="stop-color:#56FF84"/>
				<stop  offset="0.6091" style="stop-color:#3ADB5B"/>
				<stop  offset="0.7283" style="stop-color:#22B339"/>
				<stop  offset="0.8368" style="stop-color:#119720"/>
				<stop  offset="0.9309" style="stop-color:#078511"/>
				<stop  offset="1" style="stop-color:#037F0C"/>
			</linearGradient>
			<path class="st10" d="M94,4.2c0,0.1,0,0.1-0.1,0.1s-0.1,0-0.1-0.1c-0.2-1.1-0.8-1.9-1.7-1.9c-0.7,0-1.2,0.5-1.2,1.3
				c0,0.9,0.7,1.2,1.6,1.7c1.2,0.6,1.9,1,1.9,2.2c0,1.2-0.9,2.3-2.7,2.3c-0.4,0-0.8-0.1-1.1-0.1c-0.2-0.1-0.5-0.1-0.6-0.1
				c-0.1,0-0.2,0-0.3,0.2c0,0,0,0.1-0.1,0.1s-0.1,0-0.1-0.1c0,0,0,0,0-0.1c0.1-0.4,0.1-0.7,0.1-1.1c0-0.4,0-0.8-0.1-1.1
				c0-0.1,0-0.1,0-0.1c0-0.1,0-0.1,0.1-0.1c0,0,0.1,0,0.1,0.1c0.4,1.4,0.9,2.4,2.1,2.4c0.9,0,1.5-0.5,1.5-1.3c0-0.9-0.5-1.3-1.7-1.9
				c-1.1-0.6-1.9-1.1-1.9-2.2c0-1.3,1.1-2.1,2.3-2.1c0.4,0,0.7,0.1,1.2,0.2c0.2,0.1,0.3,0.1,0.4,0.1c0.1,0,0.2-0.1,0.2-0.2
				c0,0,0.1-0.1,0.1-0.1c0,0,0.1,0,0.1,0.1c0,0,0,0.1,0,0.2C94.1,2.9,94,3.6,94,4V4.2z"/>
		</g>
	</g>
	<g>
		<g>
			<linearGradient id="SVGID_12_" gradientUnits="userSpaceOnUse" x1="17.28" y1="9.7478" x2="17.28" y2="2.2517">
				<stop  offset="0" style="stop-color:#1A9A3D"/>
				<stop  offset="8.870302e-02" style="stop-color:#1C9E40"/>
				<stop  offset="0.1817" style="stop-color:#23AB48"/>
				<stop  offset="0.2766" style="stop-color:#2EC055"/>
				<stop  offset="0.3729" style="stop-color:#3EDD67"/>
				<stop  offset="0.4694" style="stop-color:#51FF7F"/>
				<stop  offset="0.4888" style="stop-color:#56FF84"/>
				<stop  offset="0.6091" style="stop-color:#3ADB5B"/>
				<stop  offset="0.7283" style="stop-color:#22B339"/>
				<stop  offset="0.8368" style="stop-color:#119720"/>
				<stop  offset="0.9309" style="stop-color:#078511"/>
				<stop  offset="1" style="stop-color:#037F0C"/>
			</linearGradient>
			<path class="st11" d="M17.9,8.9c0,0.6,0,0.6,1,0.7c0.1,0,0.1,0,0.1,0.1c0,0.1,0,0.1-0.1,0.1c0,0-0.1,0-0.3,0c-0.4,0-0.9,0-1.3,0
				c-0.4,0-0.9,0-1.3,0c-0.2,0-0.3,0-0.3,0c-0.1,0-0.1,0-0.1-0.1c0-0.1,0-0.1,0.1-0.1c1,0,1-0.1,1-0.7V3.1c0-0.6,0-0.6-1-0.7
				c-0.1,0-0.1,0-0.1-0.1c0,0,0-0.1,0.1-0.1c0,0,0.1,0,0.3,0c0.4,0,0.9,0,1.3,0c0.4,0,0.9,0,1.3,0c0.2,0,0.3,0,0.3,0
				C19,2.3,19,2.3,19,2.4c0,0.1,0,0.1-0.1,0.1c-1,0-1,0.1-1,0.7V8.9z"/>
			<linearGradient id="SVGID_13_" gradientUnits="userSpaceOnUse" x1="25.2141" y1="9.8376" x2="25.2141" y2="2.2517">
				<stop  offset="0" style="stop-color:#1A9A3D"/>
				<stop  offset="8.870302e-02" style="stop-color:#1C9E40"/>
				<stop  offset="0.1817" style="stop-color:#23AB48"/>
				<stop  offset="0.2766" style="stop-color:#2EC055"/>
				<stop  offset="0.3729" style="stop-color:#3EDD67"/>
				<stop  offset="0.4694" style="stop-color:#51FF7F"/>
				<stop  offset="0.4888" style="stop-color:#56FF84"/>
				<stop  offset="0.6091" style="stop-color:#3ADB5B"/>
				<stop  offset="0.7283" style="stop-color:#22B339"/>
				<stop  offset="0.8368" style="stop-color:#119720"/>
				<stop  offset="0.9309" style="stop-color:#078511"/>
				<stop  offset="1" style="stop-color:#037F0C"/>
			</linearGradient>
			<path class="st12" d="M27.7,3.9c0-1.1-0.5-1.4-1.6-1.4c-0.1,0-0.1,0-0.1-0.1c0-0.1,0-0.1,0.1-0.1c0,0,0.1,0,0.4,0
				c0.5,0,1,0,1.3,0c0.3,0,0.6,0,1,0c0.1,0,0.2,0,0.3,0c0.1,0,0.1,0.1,0.1,0.1c0,0,0,0.1-0.1,0.1c-0.8,0-1.2,0.4-1.2,1.4v5.7
				c0,0.2-0.1,0.2-0.1,0.2c-0.1,0-0.1,0-0.2-0.1l-4.8-6.5v4.8c0,1.2,0.2,1.4,1.5,1.5c0.1,0,0.1,0,0.1,0.1c0,0.1,0,0.1-0.1,0.1
				c0,0-0.1,0-0.3,0c-0.5,0-1,0-1.3,0c-0.3,0-0.7,0-1.1,0c-0.1,0-0.2,0-0.2,0c-0.1,0-0.1,0-0.1-0.1c0,0,0-0.1,0.1-0.1
				c0.8-0.1,1.2-0.3,1.2-1.5V3.4c0-0.9-0.1-0.9-1.2-0.9c-0.1,0-0.1-0.1-0.1-0.1s0.1-0.1,0.1-0.1h2.1c0.2,0,0.3,0.1,0.4,0.3l3.8,5.1
				V3.9z"/>
			<linearGradient id="SVGID_14_" gradientUnits="userSpaceOnUse" x1="33.1497" y1="9.7478" x2="33.1497" y2="2.2517">
				<stop  offset="0" style="stop-color:#1A9A3D"/>
				<stop  offset="8.870302e-02" style="stop-color:#1C9E40"/>
				<stop  offset="0.1817" style="stop-color:#23AB48"/>
				<stop  offset="0.2766" style="stop-color:#2EC055"/>
				<stop  offset="0.3729" style="stop-color:#3EDD67"/>
				<stop  offset="0.4694" style="stop-color:#51FF7F"/>
				<stop  offset="0.4888" style="stop-color:#56FF84"/>
				<stop  offset="0.6091" style="stop-color:#3ADB5B"/>
				<stop  offset="0.7283" style="stop-color:#22B339"/>
				<stop  offset="0.8368" style="stop-color:#119720"/>
				<stop  offset="0.9309" style="stop-color:#078511"/>
				<stop  offset="1" style="stop-color:#037F0C"/>
			</linearGradient>
			<path class="st13" d="M33.8,8.9c0,0.6,0,0.6,1,0.7c0.1,0,0.1,0,0.1,0.1c0,0.1,0,0.1-0.1,0.1c0,0-0.1,0-0.3,0c-0.4,0-0.9,0-1.3,0
				c-0.4,0-0.9,0-1.3,0c-0.2,0-0.3,0-0.3,0c-0.1,0-0.1,0-0.1-0.1c0-0.1,0-0.1,0.1-0.1c1,0,1-0.1,1-0.7V3.1c0-0.6,0-0.6-1-0.7
				c-0.1,0-0.1,0-0.1-0.1c0,0,0-0.1,0.1-0.1c0,0,0.1,0,0.3,0c0.4,0,0.9,0,1.3,0c0.4,0,0.9,0,1.3,0c0.2,0,0.3,0,0.3,0
				c0.1,0,0.1,0.1,0.1,0.1c0,0.1,0,0.1-0.1,0.1c-1,0-1,0.1-1,0.7V8.9z"/>
			<linearGradient id="SVGID_15_" gradientUnits="userSpaceOnUse" x1="39.9495" y1="9.7478" x2="39.9495" y2="2.2517">
				<stop  offset="0" style="stop-color:#1A9A3D"/>
				<stop  offset="8.870302e-02" style="stop-color:#1C9E40"/>
				<stop  offset="0.1817" style="stop-color:#23AB48"/>
				<stop  offset="0.2766" style="stop-color:#2EC055"/>
				<stop  offset="0.3729" style="stop-color:#3EDD67"/>
				<stop  offset="0.4694" style="stop-color:#51FF7F"/>
				<stop  offset="0.4888" style="stop-color:#56FF84"/>
				<stop  offset="0.6091" style="stop-color:#3ADB5B"/>
				<stop  offset="0.7283" style="stop-color:#22B339"/>
				<stop  offset="0.8368" style="stop-color:#119720"/>
				<stop  offset="0.9309" style="stop-color:#078511"/>
				<stop  offset="1" style="stop-color:#037F0C"/>
			</linearGradient>
			<path class="st14" d="M41.1,2.3c0.4,0,1,0,1.4,0c0.2,0,0.2,0,0.3,0c0.2,0,0.2,0,0.2,0.2c0,0.2,0,0.6,0,1c0,0.2,0,0.5,0,0.7
				c0,0.1,0,0.1-0.1,0.1c0,0-0.1,0-0.1-0.1c-0.2-1-0.6-1.7-1.7-1.7H41c-0.4,0-0.4,0-0.4,0.4v6c0,0.6,0,0.6,1,0.7
				c0.1,0,0.1,0,0.1,0.1c0,0.1,0,0.1-0.1,0.1c0,0-0.1,0-0.3,0c-0.4,0-0.9,0-1.3,0s-0.9,0-1.3,0c-0.2,0-0.3,0-0.3,0
				c-0.1,0-0.1,0-0.1-0.1c0-0.1,0-0.1,0.1-0.1c1,0,1-0.1,1-0.7v-6c0-0.4,0-0.4-0.4-0.4h-0.1c-1.1,0-1.6,0.6-1.7,1.7
				C37,4.3,37,4.3,37,4.3c0,0-0.1,0-0.1-0.1c0-0.2,0-0.4,0-0.7c0-0.4,0-0.8,0-1c0-0.2,0-0.2,0.2-0.2c0,0,0.1,0,0.3,0
				c0.4,0,1,0,1.4,0H41.1z"/>
			<linearGradient id="SVGID_16_" gradientUnits="userSpaceOnUse" x1="46.7498" y1="9.7478" x2="46.7498" y2="2.2517">
				<stop  offset="0" style="stop-color:#1A9A3D"/>
				<stop  offset="8.870302e-02" style="stop-color:#1C9E40"/>
				<stop  offset="0.1817" style="stop-color:#23AB48"/>
				<stop  offset="0.2766" style="stop-color:#2EC055"/>
				<stop  offset="0.3729" style="stop-color:#3EDD67"/>
				<stop  offset="0.4694" style="stop-color:#51FF7F"/>
				<stop  offset="0.4888" style="stop-color:#56FF84"/>
				<stop  offset="0.6091" style="stop-color:#3ADB5B"/>
				<stop  offset="0.7283" style="stop-color:#22B339"/>
				<stop  offset="0.8368" style="stop-color:#119720"/>
				<stop  offset="0.9309" style="stop-color:#078511"/>
				<stop  offset="1" style="stop-color:#037F0C"/>
			</linearGradient>
			<path class="st15" d="M47.4,8.9c0,0.6,0,0.6,1,0.7c0.1,0,0.1,0,0.1,0.1c0,0.1,0,0.1-0.1,0.1c0,0-0.1,0-0.3,0c-0.4,0-0.9,0-1.3,0
				c-0.4,0-0.9,0-1.3,0c-0.2,0-0.3,0-0.3,0c-0.1,0-0.1,0-0.1-0.1c0-0.1,0-0.1,0.1-0.1c1,0,1-0.1,1-0.7V3.1c0-0.6,0-0.6-1-0.7
				c-0.1,0-0.1,0-0.1-0.1c0,0,0-0.1,0.1-0.1c0,0,0.1,0,0.3,0c0.4,0,0.9,0,1.3,0c0.4,0,0.9,0,1.3,0c0.2,0,0.3,0,0.3,0
				c0.1,0,0.1,0.1,0.1,0.1c0,0.1,0,0.1-0.1,0.1c-1,0-1,0.1-1,0.7V8.9z"/>
			<linearGradient id="SVGID_17_" gradientUnits="userSpaceOnUse" x1="54.074" y1="9.7478" x2="54.074" y2="2.2517">
				<stop  offset="0" style="stop-color:#1A9A3D"/>
				<stop  offset="8.870302e-02" style="stop-color:#1C9E40"/>
				<stop  offset="0.1817" style="stop-color:#23AB48"/>
				<stop  offset="0.2766" style="stop-color:#2EC055"/>
				<stop  offset="0.3729" style="stop-color:#3EDD67"/>
				<stop  offset="0.4694" style="stop-color:#51FF7F"/>
				<stop  offset="0.4888" style="stop-color:#56FF84"/>
				<stop  offset="0.6091" style="stop-color:#3ADB5B"/>
				<stop  offset="0.7283" style="stop-color:#22B339"/>
				<stop  offset="0.8368" style="stop-color:#119720"/>
				<stop  offset="0.9309" style="stop-color:#078511"/>
				<stop  offset="1" style="stop-color:#037F0C"/>
			</linearGradient>
			<path class="st16" d="M56.6,8.4c0.4,1,0.5,1.1,1.1,1.2c0.1,0,0.1,0,0.1,0.1c0,0.1,0,0.1-0.1,0.1c-0.1,0-0.3,0-0.6,0
				c-0.3,0-0.8,0-1,0c-0.4,0-1.1,0-1.5,0c-0.2,0-0.3,0-0.4,0c-0.1,0-0.1,0-0.1-0.1c0,0,0-0.1,0.1-0.1c0.2,0,0.5,0,0.7,0
				c0.4,0,0.5-0.2,0.5-0.5c0-0.2-0.1-0.4-0.2-0.7l-0.5-1.5h-2.1l-0.5,1.2c-0.2,0.5-0.2,0.7-0.2,0.9c0,0.3,0.2,0.4,0.5,0.5
				c0.2,0,0.4,0,0.4,0c0.1,0,0.1,0,0.1,0.1c0,0.1,0,0.1-0.1,0.1c-0.1,0-0.3,0-0.6,0c-0.2,0-0.4,0-0.7,0c-0.2,0-0.3,0-0.5,0
				c-0.2,0-0.4,0-0.5,0c-0.1,0-0.1,0-0.1-0.1c0-0.1,0-0.1,0.1-0.1c0.7,0,0.9-0.4,1.4-1.7L54,2.3c0,0,0-0.1,0.1-0.1
				c0,0,0.1,0,0.1,0.1L56.6,8.4z M54.6,6.6l-1-2.6l-1,2.6H54.6z"/>
			<linearGradient id="SVGID_18_" gradientUnits="userSpaceOnUse" x1="61.9993" y1="9.7478" x2="61.9993" y2="2.2517">
				<stop  offset="0" style="stop-color:#1A9A3D"/>
				<stop  offset="8.870302e-02" style="stop-color:#1C9E40"/>
				<stop  offset="0.1817" style="stop-color:#23AB48"/>
				<stop  offset="0.2766" style="stop-color:#2EC055"/>
				<stop  offset="0.3729" style="stop-color:#3EDD67"/>
				<stop  offset="0.4694" style="stop-color:#51FF7F"/>
				<stop  offset="0.4888" style="stop-color:#56FF84"/>
				<stop  offset="0.6091" style="stop-color:#3ADB5B"/>
				<stop  offset="0.7283" style="stop-color:#22B339"/>
				<stop  offset="0.8368" style="stop-color:#119720"/>
				<stop  offset="0.9309" style="stop-color:#078511"/>
				<stop  offset="1" style="stop-color:#037F0C"/>
			</linearGradient>
			<path class="st17" d="M63.1,2.3c0.4,0,1,0,1.4,0c0.2,0,0.2,0,0.3,0c0.2,0,0.2,0,0.2,0.2c0,0.2,0,0.6,0,1c0,0.2,0,0.5,0,0.7
				c0,0.1,0,0.1-0.1,0.1s-0.1,0-0.1-0.1c-0.2-1-0.6-1.7-1.7-1.7H63c-0.4,0-0.4,0-0.4,0.4v6c0,0.6,0,0.6,1,0.7c0.1,0,0.1,0,0.1,0.1
				c0,0.1,0,0.1-0.1,0.1c0,0-0.1,0-0.3,0c-0.4,0-0.9,0-1.3,0s-0.9,0-1.3,0c-0.2,0-0.3,0-0.3,0c-0.1,0-0.1,0-0.1-0.1
				c0-0.1,0-0.1,0.1-0.1c1,0,1-0.1,1-0.7v-6c0-0.4,0-0.4-0.4-0.4h-0.1c-1.1,0-1.6,0.6-1.7,1.7c0,0.1,0,0.1-0.1,0.1s-0.1,0-0.1-0.1
				c0-0.2,0-0.4,0-0.7c0-0.4,0-0.8,0-1c0-0.2,0-0.2,0.2-0.2c0.1,0,0.1,0,0.3,0c0.4,0,1,0,1.4,0H63.1z"/>
			<linearGradient id="SVGID_19_" gradientUnits="userSpaceOnUse" x1="68.8" y1="9.7478" x2="68.8" y2="2.2517">
				<stop  offset="0" style="stop-color:#1A9A3D"/>
				<stop  offset="8.870302e-02" style="stop-color:#1C9E40"/>
				<stop  offset="0.1817" style="stop-color:#23AB48"/>
				<stop  offset="0.2766" style="stop-color:#2EC055"/>
				<stop  offset="0.3729" style="stop-color:#3EDD67"/>
				<stop  offset="0.4694" style="stop-color:#51FF7F"/>
				<stop  offset="0.4888" style="stop-color:#56FF84"/>
				<stop  offset="0.6091" style="stop-color:#3ADB5B"/>
				<stop  offset="0.7283" style="stop-color:#22B339"/>
				<stop  offset="0.8368" style="stop-color:#119720"/>
				<stop  offset="0.9309" style="stop-color:#078511"/>
				<stop  offset="1" style="stop-color:#037F0C"/>
			</linearGradient>
			<path class="st18" d="M69.4,8.9c0,0.6,0,0.6,1,0.7c0.1,0,0.1,0,0.1,0.1c0,0.1,0,0.1-0.1,0.1c0,0-0.1,0-0.3,0c-0.4,0-0.9,0-1.3,0
				c-0.4,0-0.9,0-1.3,0c-0.2,0-0.3,0-0.3,0c-0.1,0-0.1,0-0.1-0.1c0-0.1,0-0.1,0.1-0.1c1,0,1-0.1,1-0.7V3.1c0-0.6,0-0.6-1-0.7
				c-0.1,0-0.1,0-0.1-0.1c0,0,0-0.1,0.1-0.1c0,0,0.1,0,0.3,0c0.4,0,0.9,0,1.3,0c0.4,0,0.9,0,1.3,0c0.2,0,0.3,0,0.3,0
				c0.1,0,0.1,0.1,0.1,0.1c0,0.1,0,0.1-0.1,0.1c-1,0-1,0.1-1,0.7V8.9z"/>
			<linearGradient id="SVGID_20_" gradientUnits="userSpaceOnUse" x1="76.0393" y1="9.7478" x2="76.0393" y2="2.2517">
				<stop  offset="0" style="stop-color:#1A9A3D"/>
				<stop  offset="8.870302e-02" style="stop-color:#1C9E40"/>
				<stop  offset="0.1817" style="stop-color:#23AB48"/>
				<stop  offset="0.2766" style="stop-color:#2EC055"/>
				<stop  offset="0.3729" style="stop-color:#3EDD67"/>
				<stop  offset="0.4694" style="stop-color:#51FF7F"/>
				<stop  offset="0.4888" style="stop-color:#56FF84"/>
				<stop  offset="0.6091" style="stop-color:#3ADB5B"/>
				<stop  offset="0.7283" style="stop-color:#22B339"/>
				<stop  offset="0.8368" style="stop-color:#119720"/>
				<stop  offset="0.9309" style="stop-color:#078511"/>
				<stop  offset="1" style="stop-color:#037F0C"/>
			</linearGradient>
			<path class="st19" d="M75.7,9.7c-0.5-1.5-1.7-4.6-2.1-5.7C73,2.5,73,2.5,72.4,2.4c-0.1,0-0.1,0-0.1-0.1c0-0.1,0-0.1,0.1-0.1
				c0,0,0.2,0,0.3,0c0.6,0,1.2,0,1.6,0c0.4,0,0.8,0,1.2,0c0.3,0,0.4,0,0.5,0c0.1,0,0.1,0,0.1,0.1c0,0.1,0,0.1-0.1,0.1
				c-0.7,0.1-1.1,0.2-1.1,0.7c0,0.2,0,0.4,0.1,0.6c0.4,1.2,1.1,3.3,1.5,4.5c0.4-1.1,1.2-3.3,1.6-4.3c0.1-0.3,0.1-0.5,0.1-0.7
				c0-0.6-0.4-0.7-1-0.8c-0.1,0-0.1,0-0.1-0.1c0-0.1,0-0.1,0.1-0.1c0.1,0,0.4,0,0.7,0c0.2,0,0.4,0,0.7,0c0.3,0,0.5,0,0.8,0
				c0.1,0,0.2,0,0.3,0c0,0,0.1,0,0.1,0.1c0,0,0,0.1-0.1,0.1c-0.7,0.1-0.9,0.4-1.4,1.7c-0.7,1.8-1.5,4.1-2.1,5.6H75.7z"/>
			<linearGradient id="SVGID_21_" gradientUnits="userSpaceOnUse" x1="84.3591" y1="9.7478" x2="84.3591" y2="2.2517">
				<stop  offset="0" style="stop-color:#1A9A3D"/>
				<stop  offset="8.870302e-02" style="stop-color:#1C9E40"/>
				<stop  offset="0.1817" style="stop-color:#23AB48"/>
				<stop  offset="0.2766" style="stop-color:#2EC055"/>
				<stop  offset="0.3729" style="stop-color:#3EDD67"/>
				<stop  offset="0.4694" style="stop-color:#51FF7F"/>
				<stop  offset="0.4888" style="stop-color:#56FF84"/>
				<stop  offset="0.6091" style="stop-color:#3ADB5B"/>
				<stop  offset="0.7283" style="stop-color:#22B339"/>
				<stop  offset="0.8368" style="stop-color:#119720"/>
				<stop  offset="0.9309" style="stop-color:#078511"/>
				<stop  offset="1" style="stop-color:#037F0C"/>
			</linearGradient>
			<path class="st20" d="M84.5,5.8c0.9,0,1.5-0.1,1.7-1c0,0,0-0.1,0.1-0.1c0,0,0.1,0,0.1,0.1c0,0.1,0,0.1,0,0.4c0,0.2,0,0.7,0,0.8
				c0,0.2,0,0.5,0,0.7c0,0.2,0,0.2,0,0.2c0,0.1,0,0.1-0.1,0.1c0,0-0.1,0-0.1-0.1c-0.2-0.9-0.7-1-1.7-1h-0.6v2.7
				c0,0.7,0.2,0.9,0.7,0.9h0.2c1.3,0,1.9-0.6,2.3-1.9c0,0,0,0,0.1,0c0,0,0.1,0,0.1,0.1c0,0.4-0.1,1.4-0.2,1.7
				c-0.1,0.4-0.1,0.4-0.4,0.4c-0.2,0-0.4,0-0.9,0c-0.6,0-1.5,0-2.3,0c-0.4,0-0.7,0-1.1,0c-0.3,0-0.6,0-0.7,0c-0.1,0-0.1,0-0.1-0.1
				c0,0,0-0.1,0.1-0.1c0.9,0,1,0,1-1v-5c0-1-0.1-1-1.1-1.1c-0.1,0-0.1-0.1-0.1-0.1s0-0.1,0.1-0.1c0,0,0.2,0,0.4,0c0.5,0,1.2,0,1.5,0
				h1.1c0.7,0,1.1,0,1.6,0c0.3,0,0.4,0,0.5,0c0.2,0,0.2,0,0.2,0.2c0,0.3,0,0.6,0,1c0,0.2,0,0.5,0,0.6c0,0.1,0,0.1-0.1,0.1
				c0,0-0.1,0-0.1-0.1c-0.2-1-0.6-1.6-1.6-1.6h-0.8c-0.2,0-0.2,0-0.2,0.3v3H84.5z"/>
			<linearGradient id="SVGID_22_" gradientUnits="userSpaceOnUse" x1="92.03" y1="9.8479" x2="92.03" y2="2.1521">
				<stop  offset="0" style="stop-color:#1A9A3D"/>
				<stop  offset="8.870302e-02" style="stop-color:#1C9E40"/>
				<stop  offset="0.1817" style="stop-color:#23AB48"/>
				<stop  offset="0.2766" style="stop-color:#2EC055"/>
				<stop  offset="0.3729" style="stop-color:#3EDD67"/>
				<stop  offset="0.4694" style="stop-color:#51FF7F"/>
				<stop  offset="0.4888" style="stop-color:#56FF84"/>
				<stop  offset="0.6091" style="stop-color:#3ADB5B"/>
				<stop  offset="0.7283" style="stop-color:#22B339"/>
				<stop  offset="0.8368" style="stop-color:#119720"/>
				<stop  offset="0.9309" style="stop-color:#078511"/>
				<stop  offset="1" style="stop-color:#037F0C"/>
			</linearGradient>
			<path class="st21" d="M94,4.2c0,0.1,0,0.1-0.1,0.1s-0.1,0-0.1-0.1c-0.2-1.1-0.8-1.9-1.7-1.9c-0.7,0-1.2,0.5-1.2,1.3
				c0,0.9,0.7,1.2,1.6,1.7c1.2,0.6,1.9,1,1.9,2.2c0,1.2-0.9,2.3-2.7,2.3c-0.4,0-0.8-0.1-1.1-0.1c-0.2-0.1-0.5-0.1-0.6-0.1
				c-0.1,0-0.2,0-0.3,0.2c0,0,0,0.1-0.1,0.1s-0.1,0-0.1-0.1c0,0,0,0,0-0.1c0.1-0.4,0.1-0.7,0.1-1.1c0-0.4,0-0.8-0.1-1.1
				c0-0.1,0-0.1,0-0.1c0-0.1,0-0.1,0.1-0.1c0,0,0.1,0,0.1,0.1c0.4,1.4,0.9,2.4,2.1,2.4c0.9,0,1.5-0.5,1.5-1.3c0-0.9-0.5-1.3-1.7-1.9
				c-1.1-0.6-1.9-1.1-1.9-2.2c0-1.3,1.1-2.1,2.3-2.1c0.4,0,0.7,0.1,1.2,0.2c0.2,0.1,0.3,0.1,0.4,0.1c0.1,0,0.2-0.1,0.2-0.2
				c0,0,0.1-0.1,0.1-0.1c0,0,0.1,0,0.1,0.1c0,0,0,0.1,0,0.2C94.1,2.9,94,3.6,94,4V4.2z"/>
		</g>
	</g>
</g>
</svg>
