<?xml version="1.0" encoding="utf-8"?>
<!-- Generator: Adobe Illustrator 25.2.0, SVG Export Plug-In . SVG Version: 6.00 Build 0)  -->
<svg version="1.1" id="レイヤー_1" xmlns="http://www.w3.org/2000/svg" xmlns:xlink="http://www.w3.org/1999/xlink" x="0px"
	 y="0px" viewBox="0 0 110 12" style="enable-background:new 0 0 110 12;" xml:space="preserve">
<style type="text/css">
	.st0{enable-background:new    ;}
	.st1{fill:url(#SVGID_1_);}
	.st2{fill:url(#SVGID_2_);}
	.st3{fill:url(#SVGID_3_);}
	.st4{fill:url(#SVGID_4_);}
	.st5{fill:url(#SVGID_5_);}
	.st6{fill:url(#SVGID_6_);}
	.st7{fill:url(#SVGID_7_);}
	.st8{fill:url(#SVGID_8_);}
	.st9{fill:url(#SVGID_9_);}
</style>
<g class="st0">
	
		<linearGradient id="SVGID_1_" gradientUnits="userSpaceOnUse" x1="19.6733" y1="5.4776" x2="25.0698" y2="5.4776" gradientTransform="matrix(1 0 0 -1 0 11.5276)">
		<stop  offset="0" style="stop-color:#1A9A3D"/>
		<stop  offset="8.870302e-02" style="stop-color:#1C9E40"/>
		<stop  offset="0.1817" style="stop-color:#23AB48"/>
		<stop  offset="0.2766" style="stop-color:#2EC055"/>
		<stop  offset="0.3729" style="stop-color:#3EDD67"/>
		<stop  offset="0.4694" style="stop-color:#51FF7F"/>
		<stop  offset="0.4888" style="stop-color:#56FF84"/>
		<stop  offset="0.6091" style="stop-color:#3ADB5B"/>
		<stop  offset="0.7283" style="stop-color:#22B339"/>
		<stop  offset="0.8368" style="stop-color:#119720"/>
		<stop  offset="0.9309" style="stop-color:#078511"/>
		<stop  offset="1" style="stop-color:#037F0C"/>
	</linearGradient>
	<path class="st1" d="M23.8,2.8l0.5-0.7h0.4v2.7h-0.3C24.2,4,23.9,3.4,23.5,3c-0.5-0.3-1-0.5-1.5-0.5c-0.4,0-0.8,0.1-1.1,0.4
		c-0.3,0.3-0.4,0.6-0.4,1c0,0.2,0.1,0.5,0.2,0.6s0.3,0.3,0.5,0.4s0.6,0.2,1.2,0.4c0.8,0.2,1.4,0.4,1.8,0.6s0.6,0.4,0.8,0.7
		s0.2,0.6,0.2,1c0,0.7-0.2,1.2-0.7,1.7c-0.5,0.4-1,0.7-1.8,0.7s-1.4-0.3-2-0.8L20,9.9h-0.4V7H20c0.1,0.8,0.5,1.4,1,1.9
		s1,0.7,1.7,0.7c0.5,0,0.9-0.1,1.2-0.4c0.3-0.3,0.5-0.7,0.5-1.1c0-0.2-0.1-0.5-0.2-0.6S23.9,7.2,23.6,7c-0.3-0.1-0.8-0.3-1.5-0.4
		c-0.8-0.2-1.4-0.4-1.7-0.7C20,5.5,19.8,5,19.8,4.4c0-0.7,0.2-1.2,0.6-1.6s1-0.6,1.6-0.6c0.3,0,0.6,0.1,0.9,0.2
		C23.2,2.4,23.5,2.6,23.8,2.8z"/>
	
		<linearGradient id="SVGID_2_" gradientUnits="userSpaceOnUse" x1="26.8262" y1="5.4776" x2="33.2207" y2="5.4776" gradientTransform="matrix(1 0 0 -1 0 11.5276)">
		<stop  offset="0" style="stop-color:#1A9A3D"/>
		<stop  offset="8.870302e-02" style="stop-color:#1C9E40"/>
		<stop  offset="0.1817" style="stop-color:#23AB48"/>
		<stop  offset="0.2766" style="stop-color:#2EC055"/>
		<stop  offset="0.3729" style="stop-color:#3EDD67"/>
		<stop  offset="0.4694" style="stop-color:#51FF7F"/>
		<stop  offset="0.4888" style="stop-color:#56FF84"/>
		<stop  offset="0.6091" style="stop-color:#3ADB5B"/>
		<stop  offset="0.7283" style="stop-color:#22B339"/>
		<stop  offset="0.8368" style="stop-color:#119720"/>
		<stop  offset="0.9309" style="stop-color:#078511"/>
		<stop  offset="1" style="stop-color:#037F0C"/>
	</linearGradient>
	<path class="st2" d="M27,2.3h6.1l0.1,2.8h-0.3c-0.2-1.7-0.8-2.5-1.8-2.5c-0.2,0-0.3,0-0.4,0.1S30.6,2.9,30.6,3v6
		c0,0.1,0,0.2,0.1,0.3s0.2,0.1,0.3,0.1h0.8v0.4h-3.5V9.4h0.9c0.1,0,0.2,0,0.3-0.1c0.1-0.1,0.1-0.1,0.1-0.2V3c0-0.1,0-0.2-0.1-0.3
		s-0.2-0.1-0.4-0.1c-0.5,0-0.9,0.2-1.2,0.7c-0.3,0.4-0.5,1-0.6,1.8h-0.4L27,2.3z"/>
	
		<linearGradient id="SVGID_3_" gradientUnits="userSpaceOnUse" x1="34.7134" y1="5.4776" x2="41.7612" y2="5.4776" gradientTransform="matrix(1 0 0 -1 0 11.5276)">
		<stop  offset="0" style="stop-color:#1A9A3D"/>
		<stop  offset="8.870302e-02" style="stop-color:#1C9E40"/>
		<stop  offset="0.1817" style="stop-color:#23AB48"/>
		<stop  offset="0.2766" style="stop-color:#2EC055"/>
		<stop  offset="0.3729" style="stop-color:#3EDD67"/>
		<stop  offset="0.4694" style="stop-color:#51FF7F"/>
		<stop  offset="0.4888" style="stop-color:#56FF84"/>
		<stop  offset="0.6091" style="stop-color:#3ADB5B"/>
		<stop  offset="0.7283" style="stop-color:#22B339"/>
		<stop  offset="0.8368" style="stop-color:#119720"/>
		<stop  offset="0.9309" style="stop-color:#078511"/>
		<stop  offset="1" style="stop-color:#037F0C"/>
	</linearGradient>
	<path class="st3" d="M34.7,2.3h3.9c0.7,0,1.3,0.2,1.7,0.5C40.7,3.1,41,3.6,41,4.1c0,0.3-0.1,0.6-0.2,0.9c-0.2,0.3-0.4,0.5-0.7,0.6
		c-0.3,0.2-0.8,0.3-1.5,0.3c0.5,0.1,0.8,0.3,1,0.4s0.3,0.3,0.4,0.5C40.1,7,40.2,7.4,40.4,8c0.1,0.4,0.2,0.7,0.3,0.9
		C40.8,9,40.9,9.1,41,9.1s0.2-0.1,0.3-0.2c0.1-0.2,0.1-0.4,0.2-0.8h0.3c-0.1,1.1-0.5,1.7-1.3,1.7c-0.2,0-0.5-0.1-0.6-0.2
		S39.6,9.3,39.5,9c-0.1-0.2-0.2-0.7-0.2-1.4c-0.1-0.4-0.1-0.8-0.2-1c-0.1-0.2-0.3-0.3-0.5-0.5c-0.2-0.1-0.5-0.2-0.8-0.2H37V9
		c0,0.1,0,0.2,0.1,0.3s0.2,0.1,0.4,0.1h0.7v0.4h-3.5V9.4h0.7c0.2,0,0.3,0,0.4-0.1c0.1-0.1,0.1-0.2,0.1-0.3V3c0-0.1,0-0.2-0.1-0.3
		s-0.2-0.1-0.4-0.1h-0.7V2.3z M37,5.7h0.9c0.6,0,1.1-0.1,1.4-0.3c0.3-0.2,0.5-0.6,0.5-1.2c0-0.4-0.1-0.7-0.2-0.9
		c-0.1-0.2-0.3-0.4-0.5-0.5s-0.6-0.1-1.2-0.1c-0.4,0-0.6,0-0.7,0.1S37,2.9,37,3V5.7z"/>
	
		<linearGradient id="SVGID_4_" gradientUnits="userSpaceOnUse" x1="43.6187" y1="5.4776" x2="49.9187" y2="5.4776" gradientTransform="matrix(1 0 0 -1 0 11.5276)">
		<stop  offset="0" style="stop-color:#1A9A3D"/>
		<stop  offset="8.870302e-02" style="stop-color:#1C9E40"/>
		<stop  offset="0.1817" style="stop-color:#23AB48"/>
		<stop  offset="0.2766" style="stop-color:#2EC055"/>
		<stop  offset="0.3729" style="stop-color:#3EDD67"/>
		<stop  offset="0.4694" style="stop-color:#51FF7F"/>
		<stop  offset="0.4888" style="stop-color:#56FF84"/>
		<stop  offset="0.6091" style="stop-color:#3ADB5B"/>
		<stop  offset="0.7283" style="stop-color:#22B339"/>
		<stop  offset="0.8368" style="stop-color:#119720"/>
		<stop  offset="0.9309" style="stop-color:#078511"/>
		<stop  offset="1" style="stop-color:#037F0C"/>
	</linearGradient>
	<path class="st4" d="M43.6,2.3h5.9l0.1,2.5h-0.3C49.2,4,49,3.5,48.7,3.1c-0.3-0.3-0.7-0.5-1.1-0.5h-1.5c-0.1,0-0.2,0-0.3,0.1
		S45.7,2.9,45.7,3v2.7h0.6c0.3,0,0.6-0.1,0.8-0.4c0.2-0.2,0.3-0.6,0.3-1.1h0.3v3.5h-0.3c0-0.6-0.1-1-0.4-1.2s-0.5-0.4-0.9-0.4h-0.6
		v3c0,0.1,0,0.2,0.1,0.2s0.2,0.1,0.4,0.1h1.2c1.3,0,2-0.8,2.2-2.4h0.4l-0.1,2.8h-6.2V9.4H44c0.2,0,0.3,0,0.4-0.1
		c0.1-0.1,0.1-0.2,0.1-0.3V3.1c0-0.1,0-0.2-0.1-0.3s-0.2-0.1-0.3-0.1h-0.6L43.6,2.3L43.6,2.3z"/>
	
		<linearGradient id="SVGID_5_" gradientUnits="userSpaceOnUse" x1="51.8555" y1="5.4776" x2="59.6934" y2="5.4776" gradientTransform="matrix(1 0 0 -1 0 11.5276)">
		<stop  offset="0" style="stop-color:#1A9A3D"/>
		<stop  offset="8.870302e-02" style="stop-color:#1C9E40"/>
		<stop  offset="0.1817" style="stop-color:#23AB48"/>
		<stop  offset="0.2766" style="stop-color:#2EC055"/>
		<stop  offset="0.3729" style="stop-color:#3EDD67"/>
		<stop  offset="0.4694" style="stop-color:#51FF7F"/>
		<stop  offset="0.4888" style="stop-color:#56FF84"/>
		<stop  offset="0.6091" style="stop-color:#3ADB5B"/>
		<stop  offset="0.7283" style="stop-color:#22B339"/>
		<stop  offset="0.8368" style="stop-color:#119720"/>
		<stop  offset="0.9309" style="stop-color:#078511"/>
		<stop  offset="1" style="stop-color:#037F0C"/>
	</linearGradient>
	<path class="st5" d="M51.9,2.3h1.8l4.5,5.9V3.9c0-0.4-0.1-0.7-0.3-1c-0.2-0.2-0.4-0.3-0.8-0.3V2.3h2.6v0.4c-0.3,0-0.5,0-0.6,0.1
		c-0.1,0-0.3,0.2-0.4,0.4s-0.1,0.4-0.1,0.6v6h-0.5l-4.7-6.1v4.5c0,0.4,0.1,0.7,0.3,0.9s0.5,0.3,1,0.3v0.4h-2.9V9.4
		c0.4,0,0.6-0.1,0.9-0.4S53,8.6,53,8.2v-5l-0.1-0.1c-0.2-0.2-0.3-0.3-0.4-0.3c-0.1,0-0.2-0.1-0.4-0.1h-0.3V2.3H51.9z"/>
	
		<linearGradient id="SVGID_6_" gradientUnits="userSpaceOnUse" x1="61.4102" y1="5.4776" x2="68.6699" y2="5.4776" gradientTransform="matrix(1 0 0 -1 0 11.5276)">
		<stop  offset="0" style="stop-color:#1A9A3D"/>
		<stop  offset="8.870302e-02" style="stop-color:#1C9E40"/>
		<stop  offset="0.1817" style="stop-color:#23AB48"/>
		<stop  offset="0.2766" style="stop-color:#2EC055"/>
		<stop  offset="0.3729" style="stop-color:#3EDD67"/>
		<stop  offset="0.4694" style="stop-color:#51FF7F"/>
		<stop  offset="0.4888" style="stop-color:#56FF84"/>
		<stop  offset="0.6091" style="stop-color:#3ADB5B"/>
		<stop  offset="0.7283" style="stop-color:#22B339"/>
		<stop  offset="0.8368" style="stop-color:#119720"/>
		<stop  offset="0.9309" style="stop-color:#078511"/>
		<stop  offset="1" style="stop-color:#037F0C"/>
	</linearGradient>
	<path class="st6" d="M66.7,2.9l0.4-0.8h0.3l0.2,3h-0.3c-0.3-0.9-0.6-1.5-0.9-1.9c-0.4-0.5-0.9-0.7-1.5-0.7c-0.4,0-0.8,0.1-1.2,0.4
		C63.4,3.1,63.1,3.5,63,4c-0.2,0.5-0.3,1.2-0.3,2.1s0.1,1.5,0.3,2s0.4,0.8,0.8,1.1c0.3,0.2,0.7,0.3,1.1,0.3c0.6,0,1-0.2,1.4-0.5
		s0.5-0.8,0.5-1.3V7.1c0-0.1,0-0.2-0.1-0.3s-0.2-0.1-0.4-0.1h-0.6V6.4h3.1v0.4h-0.4c-0.2,0-0.3,0-0.4,0.1s-0.1,0.2-0.1,0.3V10h-0.3
		c-0.1-0.4-0.2-0.9-0.4-1.3c-0.3,0.4-0.6,0.7-0.9,0.9s-0.7,0.3-1.2,0.3c-0.6,0-1.2-0.2-1.8-0.5S62.3,8.6,62,8s-0.5-1.3-0.5-2
		s0.2-1.4,0.5-2s0.7-1.1,1.3-1.4s1.1-0.5,1.7-0.5c0.3,0,0.6,0.1,0.9,0.2C66,2.4,66.4,2.6,66.7,2.9z"/>
	
		<linearGradient id="SVGID_7_" gradientUnits="userSpaceOnUse" x1="70.2441" y1="5.4276" x2="76.6387" y2="5.4276" gradientTransform="matrix(1 0 0 -1 0 11.5276)">
		<stop  offset="0" style="stop-color:#1A9A3D"/>
		<stop  offset="8.870302e-02" style="stop-color:#1C9E40"/>
		<stop  offset="0.1817" style="stop-color:#23AB48"/>
		<stop  offset="0.2766" style="stop-color:#2EC055"/>
		<stop  offset="0.3729" style="stop-color:#3EDD67"/>
		<stop  offset="0.4694" style="stop-color:#51FF7F"/>
		<stop  offset="0.4888" style="stop-color:#56FF84"/>
		<stop  offset="0.6091" style="stop-color:#3ADB5B"/>
		<stop  offset="0.7283" style="stop-color:#22B339"/>
		<stop  offset="0.8368" style="stop-color:#119720"/>
		<stop  offset="0.9309" style="stop-color:#078511"/>
		<stop  offset="1" style="stop-color:#037F0C"/>
	</linearGradient>
	<path class="st7" d="M70.4,2.3h6.1l0.1,2.8h-0.3c-0.2-1.7-0.8-2.5-1.8-2.5c-0.2,0-0.3,0-0.4,0.1C74,2.8,74,2.9,74,3.1v6
		c0,0.1,0,0.2,0.1,0.3s0.2,0.1,0.3,0.1h0.8v0.4h-3.5V9.4h0.9c0.1,0,0.2,0,0.3-0.1C73,9.2,73,9.2,73,9.1V3c0-0.1,0-0.2-0.1-0.3
		s-0.2-0.1-0.4-0.1c-0.5,0-0.9,0.2-1.2,0.7c-0.3,0.4-0.5,1-0.6,1.8h-0.4L70.4,2.3z"/>
	
		<linearGradient id="SVGID_8_" gradientUnits="userSpaceOnUse" x1="78.3535" y1="5.4776" x2="86.0254" y2="5.4776" gradientTransform="matrix(1 0 0 -1 0 11.5276)">
		<stop  offset="0" style="stop-color:#1A9A3D"/>
		<stop  offset="8.870302e-02" style="stop-color:#1C9E40"/>
		<stop  offset="0.1817" style="stop-color:#23AB48"/>
		<stop  offset="0.2766" style="stop-color:#2EC055"/>
		<stop  offset="0.3729" style="stop-color:#3EDD67"/>
		<stop  offset="0.4694" style="stop-color:#51FF7F"/>
		<stop  offset="0.4888" style="stop-color:#56FF84"/>
		<stop  offset="0.6091" style="stop-color:#3ADB5B"/>
		<stop  offset="0.7283" style="stop-color:#22B339"/>
		<stop  offset="0.8368" style="stop-color:#119720"/>
		<stop  offset="0.9309" style="stop-color:#078511"/>
		<stop  offset="1" style="stop-color:#037F0C"/>
	</linearGradient>
	<path class="st8" d="M78.4,2.3h3.2v0.4H81c-0.2,0-0.3,0-0.4,0.1S80.5,3,80.5,3.3v2.3h3.4V3.3c0-0.3,0-0.5-0.1-0.5s-0.2-0.1-0.4-0.1
		h-0.5V2.3H86v0.4h-0.6c-0.1,0-0.2,0-0.3,0.1C85,2.8,85,2.9,85,3c0,0.1,0,0.2,0,0.5v5.4c0,0.1,0,0.3,0,0.3c0.1,0.1,0.2,0.2,0.5,0.2
		H86v0.4h-3.2V9.4h0.5c0.2,0,0.4-0.1,0.4-0.2c0-0.1,0.1-0.2,0.1-0.5V6.1h-3.4v2.6c0,0.3,0,0.4,0.1,0.5s0.2,0.2,0.4,0.2h0.6v0.4h-3.2
		V9.4H79c0.1,0,0.2,0,0.3-0.1s0.1-0.1,0.1-0.2c0-0.1,0-0.2,0-0.4V3.3c0-0.3,0-0.5-0.1-0.5s-0.2-0.1-0.4-0.1h-0.5V2.3z"/>
	
		<linearGradient id="SVGID_9_" gradientUnits="userSpaceOnUse" x1="88.1816" y1="5.5276" x2="93.5781" y2="5.5276" gradientTransform="matrix(1 0 0 -1 0 11.5276)">
		<stop  offset="0" style="stop-color:#1A9A3D"/>
		<stop  offset="8.870302e-02" style="stop-color:#1C9E40"/>
		<stop  offset="0.1817" style="stop-color:#23AB48"/>
		<stop  offset="0.2766" style="stop-color:#2EC055"/>
		<stop  offset="0.3729" style="stop-color:#3EDD67"/>
		<stop  offset="0.4694" style="stop-color:#51FF7F"/>
		<stop  offset="0.4888" style="stop-color:#56FF84"/>
		<stop  offset="0.6091" style="stop-color:#3ADB5B"/>
		<stop  offset="0.7283" style="stop-color:#22B339"/>
		<stop  offset="0.8368" style="stop-color:#119720"/>
		<stop  offset="0.9309" style="stop-color:#078511"/>
		<stop  offset="1" style="stop-color:#037F0C"/>
	</linearGradient>
	<path class="st9" d="M92.3,2.8l0.5-0.7h0.4v2.7h-0.3C92.7,4,92.4,3.4,92,3s-0.9-0.6-1.4-0.6c-0.4,0-0.8,0.1-1.1,0.4
		c-0.3,0.3-0.4,0.6-0.4,1c0,0.2,0.1,0.5,0.2,0.6c0.1,0.2,0.3,0.3,0.5,0.4S90.4,5,91,5.2c0.8,0.2,1.4,0.4,1.8,0.6s0.6,0.4,0.8,0.7
		s0.2,0.6,0.2,1c0,0.7-0.2,1.2-0.7,1.7c-0.5,0.4-1,0.7-1.8,0.7s-1.4-0.3-2-0.8l-0.6,0.7h-0.4V7h0.4c0.1,0.8,0.5,1.4,1,1.9
		s1,0.7,1.7,0.7c0.5,0,0.9-0.1,1.2-0.4c0.3-0.3,0.5-0.7,0.5-1.1c0-0.2-0.1-0.5-0.2-0.6S92.6,7.2,92.3,7c-0.3-0.1-0.8-0.3-1.5-0.4
		c-0.8-0.2-1.4-0.4-1.7-0.7c-0.4-0.3-0.6-0.8-0.6-1.5s0.2-1.2,0.6-1.6s1-0.6,1.6-0.6c0.3,0,0.6,0.1,0.9,0.2
		C91.7,2.4,92,2.6,92.3,2.8z"/>
</g>
</svg>
